<?xml version="1.0" encoding="iso-8859-1"?>
<!-- Generator: Adobe Illustrator 19.0.0, SVG Export Plug-In . SVG Version: 6.00 Build 0)  -->
<svg version="1.1" id="Capa_1" xmlns="http://www.w3.org/2000/svg" xmlns:xlink="http://www.w3.org/1999/xlink" x="0px" y="0px"
	 viewBox="0 0 512 512" style="enable-background:new 0 0 512 512;" xml:space="preserve">
<path style="fill:#85E7FF;" d="M177.896,427.955h-75.323c-38.565,0-69.94-31.375-69.94-69.94v-72.48
	c0-38.565,31.375-69.94,69.94-69.94h75.323c11.461,0,20.752,9.291,20.752,20.752s-9.291,20.752-20.752,20.752h-75.323
	c-15.68,0-28.436,12.757-28.436,28.436v72.48c0,15.68,12.757,28.436,28.436,28.436h75.323c11.461,0,20.752,9.29,20.752,20.752
	C198.648,418.664,189.356,427.955,177.896,427.955z"/>
<path style="fill:#EFEDEE;" d="M479.213,22.801l-3.89-17.689c-0.772-3.51-4.243-5.73-7.753-4.958l-84.867,18.663
	c-4.326,0.951-8.041,3.7-10.216,7.558l-33.143,58.797l27.117,15.285l29.726-52.733l78.069-17.168
	C477.766,29.782,479.986,26.31,479.213,22.801z"/>
<polygon style="fill:#D2D2D2;" points="395.035,49.766 359.301,49.766 339.344,85.17 366.461,100.456 "/>
<path style="fill:#85E7FF;" d="M404.427,75.52H174.791c-8.6,0-15.572,6.972-15.572,15.572v11.742c0,8.6,6.972,15.572,15.572,15.572
	l114.818,26.286l114.818-26.286c8.6,0,15.572-6.972,15.572-15.572V91.092C419.999,82.491,413.028,75.52,404.427,75.52z"/>
<path style="fill:#57D0E6;" d="M174.791,118.407c0,0-57.94,26.631-57.94,82.143v229.308c0,14.869,4.157,27.667,10.244,38.434
	c15.428,27.292,44.81,43.708,76.16,43.708h172.71c31.35,0,60.732-16.417,76.159-43.709c6.087-10.768,10.244-23.565,10.244-38.434
	V200.549c0-55.511-57.94-82.143-57.94-82.143L174.791,118.407L174.791,118.407z"/>
<path style="fill:#FADC60;" d="M402.009,200.549h-224.8c-13.279,0-24.043,10.764-24.043,24.043v205.265
	c0,7.24,1.813,13.966,5.542,20.563c8.809,15.584,25.878,25.264,44.545,25.264h172.71c18.668,0,35.736-9.681,44.545-25.263
	c3.73-6.598,5.542-13.325,5.542-20.564V224.592C426.053,211.314,415.287,200.549,402.009,200.549z"/>
<g>
	<path style="fill:#3A484A;" d="M213.245,176.396c-4.267,0-7.726-3.459-7.726-7.726v-13.821c0-4.267,3.459-7.726,7.726-7.726
		c4.267,0,7.726,3.459,7.726,7.726v13.821C220.972,172.937,217.512,176.396,213.245,176.396z"/>
	<path style="fill:#3A484A;" d="M365.974,176.396c-4.267,0-7.726-3.459-7.726-7.726v-13.821c0-4.267,3.459-7.726,7.726-7.726
		c4.267,0,7.726,3.459,7.726,7.726v13.821C373.7,172.937,370.241,176.396,365.974,176.396z"/>
	<path style="fill:#3A484A;" d="M289.609,183.774c-9.576,0-18.566-4.002-24.666-10.981c-2.808-3.213-2.481-8.094,0.732-10.902
		c3.212-2.807,8.092-2.481,10.902,0.732c3.165,3.621,7.914,5.697,13.031,5.697c5.116,0,9.865-2.077,13.031-5.698
		c2.808-3.213,7.689-3.54,10.902-0.732c3.213,2.808,3.541,7.689,0.731,10.902C308.174,179.772,299.185,183.774,289.609,183.774z"/>
</g>
<path style="fill:#7CB777;" d="M297.478,368.879l-8.005-15.731l-60.284-52.24l10.588-45.431l-8.005-15.721
	c-2.102-4.121-7.294-5.46-11.167-2.946c-34.047,22.169-46.626,67.044-27.794,104.048c18.832,37.014,62.522,53.25,100.474,38.766
	C297.602,377.985,299.569,372.989,297.478,368.879z"/>
<path style="fill:#F2C42C;" d="M289.473,353.148c-26.97,13.722-59.957,2.988-73.679-23.983
	c-13.732-26.97-2.988-59.957,23.983-73.689L289.473,353.148z"/>
<path style="fill:#EFEDEE;" d="M215.791,329.166c1.19,2.339,2.533,4.546,3.997,6.635l31.717-16.141l-11.016,33.846
	c4.647,2.276,9.597,3.887,14.695,4.782c0.284-0.875,10.91-33.52,14.398-44.236l-9.911-19.477
	c-13.263-4.316-40.201-13.084-44.236-14.398c-2.276,4.647-3.887,9.597-4.782,14.694l33.846,11.016l-31.717,16.141
	C213.607,324.443,214.601,326.828,215.791,329.166z"/>
<path style="fill:#7CB777;" d="M366.943,301.062c-3.111-3.863-8.86-4.213-12.362-0.711l-13.392,13.392l-16.044,53.909L258.032,396.9
	l-13.382,13.392c-3.513,3.503-3.152,9.251,0.701,12.362c33.924,27.382,83.898,25.322,115.411-6.191
	C392.265,384.96,394.325,334.986,366.943,301.062z"/>
<path style="fill:#F2C42C;" d="M341.189,396.9c-22.963,22.963-60.193,22.963-83.156,0l83.156-83.156
	C364.151,336.706,364.151,373.937,341.189,396.9z"/>
<path style="fill:#EFEDEE;" d="M357.895,347.594c-4.36,0-35.728,0-50.555,0l-15.453,15.453v50.555
	c5.127,0.676,10.326,0.676,15.453,0v-39.629l28.021,28.021c2.024-1.555,3.979-3.241,5.832-5.094
	c1.853-1.853,3.541-3.808,5.094-5.832l-28.021-28.021h39.629C358.571,357.92,358.571,352.722,357.895,347.594z"/>
<g>
</g>
<g>
</g>
<g>
</g>
<g>
</g>
<g>
</g>
<g>
</g>
<g>
</g>
<g>
</g>
<g>
</g>
<g>
</g>
<g>
</g>
<g>
</g>
<g>
</g>
<g>
</g>
<g>
</g>
</svg>
