<?xml version="1.0" encoding="iso-8859-1"?>
<!-- Generator: Adobe Illustrator 19.0.0, SVG Export Plug-In . SVG Version: 6.00 Build 0)  -->
<svg version="1.1" id="Capa_1" xmlns="http://www.w3.org/2000/svg" xmlns:xlink="http://www.w3.org/1999/xlink" x="0px" y="0px"
	 viewBox="0 0 511.998 511.998" style="enable-background:new 0 0 511.998 511.998;" xml:space="preserve">
<g>
	<polygon style="fill:#C86D5C;" points="429.747,143.411 410.093,144.944 392.105,175.435 392.105,202.844 413.413,202.844 
		431.412,172.355 	"/>
	<polygon style="fill:#C86D5C;" points="463.135,86.975 446.079,83.975 428.091,114.466 429.747,143.411 449.401,141.865 
		467.387,111.385 	"/>
</g>
<g>
	<polygon style="fill:#EFEDEE;" points="413.413,202.844 386.006,249.287 358.204,232.878 392.105,175.435 	"/>
	<polygon style="fill:#EFEDEE;" points="449.401,141.865 431.412,172.355 410.093,144.944 428.091,114.466 	"/>
	<path style="fill:#EFEDEE;" d="M478.975,91.756l-11.588,19.628l-21.308-27.409l5.094-8.627c2.456-4.152,7.809-5.526,11.952-3.081
		l12.769,7.537C480.047,82.25,481.432,87.604,478.975,91.756z"/>
</g>
<path style="fill:#FF98C5;" d="M309.846,176.523c-22.218,0-42.736,7.276-59.307,19.571c-4.214-7.194-12.019-12.03-20.959-12.03
	c-13.408,0-24.278,10.869-24.278,24.278c0,10.381,6.518,19.237,15.685,22.708c-6.889,13.543-10.775,28.871-10.775,45.107
	c0,12.611,2.343,24.674,6.618,35.78l186.908-2.368c3.717-10.445,5.741-21.693,5.741-33.412
	C409.479,221.129,364.872,176.523,309.846,176.523z"/>
<path style="fill:#EB5E8A;" d="M403.738,309.569c3.717-10.445,5.741-21.693,5.741-33.412c0-55.026-44.607-99.633-99.633-99.633
	c-5.16,0-10.223,0.408-15.17,1.165c47.774,7.351,84.358,48.636,84.358,98.468c0,11.721-2.024,22.967-5.741,33.412H403.738z"/>
<path style="fill:#C86D5C;" d="M242.332,311.936c4.275-11.105,6.618-23.169,6.618-35.78c0-55.026-44.607-99.633-99.633-99.633
	s-99.633,44.607-99.633,99.633c0,11.721,2.024,22.968,5.741,33.412L242.332,311.936z"/>
<path style="fill:#AD4F3D;" d="M85.87,309.569c-3.717-10.445-5.741-21.693-5.741-33.412c0-49.85,36.61-91.148,84.41-98.477
	c-4.964-0.761-10.047-1.156-15.223-1.156c-55.026,0-99.633,44.607-99.633,99.633c0,11.721,2.024,22.967,5.741,33.412H85.87z"/>
<path style="fill:#85E7FF;" d="M268.898,453.16c-12.074-5.24-19.949-17.069-19.949-30.232v-18.334L229.58,385.03l-19.368,19.565
	v18.334c0,13.162-7.874,24.992-19.949,30.232c-13.408,5.819-30.479,15.861-40.948,31.939l80.265,13.45l80.265-13.45l0,0
	C299.377,469.02,282.306,458.978,268.898,453.16z"/>
<path style="fill:#57D0E6;" d="M179.762,485.098c10.468-16.078,27.54-26.121,40.948-31.94c12.074-5.24,19.949-17.069,19.949-30.232
	v-18.334l4.145-4.187l-15.223-15.377l-19.368,19.565v18.334c0,13.162-7.874,24.991-19.949,30.232
	c-13.408,5.819-30.479,15.861-40.948,31.94l80.265,13.45l15.223-2.55L179.762,485.098z"/>
<path style="fill:#85E7FF;" d="M420.894,289.708H38.268c-4.246,0-7.341,4.025-6.233,8.124c7.093,26.265,41.602,107.2,197.547,107.2
	s190.453-80.934,197.547-107.2C428.235,293.733,425.14,289.708,420.894,289.708z"/>
<path style="fill:#57D0E6;" d="M62.48,297.832c-1.107-4.099,1.988-8.124,6.233-8.124H38.267c-4.246,0-7.341,4.025-6.233,8.124
	c7.093,26.265,41.602,107.2,197.547,107.2c5.212,0,10.279-0.097,15.223-0.273C101.817,399.675,69.336,323.218,62.48,297.832z"/>
<g>
	<path style="fill:#3A484A;" d="M159.51,351.481c-4.204,0-7.611-3.408-7.611-7.611v-12.682c0-4.204,3.408-7.611,7.611-7.611
		c4.204,0,7.611,3.408,7.611,7.611v12.682C167.121,348.073,163.713,351.481,159.51,351.481z"/>
	<path style="fill:#3A484A;" d="M299.652,351.481c-4.204,0-7.611-3.408-7.611-7.611v-12.682c0-4.204,3.408-7.611,7.611-7.611
		c4.204,0,7.611,3.408,7.611,7.611v12.682C307.264,348.073,303.856,351.481,299.652,351.481z"/>
	<path style="fill:#3A484A;" d="M229.581,358.251c-8.937,0-17.329-3.738-23.025-10.254c-2.767-3.165-2.444-7.974,0.721-10.74
		s7.973-2.444,10.74,0.721c2.806,3.209,7.021,5.05,11.564,5.05c4.545,0,8.758-1.84,11.563-5.049
		c2.767-3.165,7.576-3.488,10.74-0.722c3.165,2.767,3.488,7.575,0.722,10.74C246.911,354.513,238.518,358.251,229.581,358.251z"/>
</g>
<path style="fill:#FADC60;" d="M229.581,198.193c0,17.255-13.988,31.242-31.242,31.242l0,0c-17.255,0-31.242-13.988-31.242-31.242
	c0,17.255-13.988,31.242-31.242,31.242l0,0c-17.255,0-31.242-13.988-31.242-31.242c0-69.018,55.949-124.967,124.967-124.967
	s124.967,55.949,124.967,124.967c0,17.255-13.988,31.242-31.243,31.242l0,0c-17.255,0-31.242-13.988-31.242-31.242
	c0,17.255-13.988,31.242-31.242,31.242l0,0C243.568,229.435,229.581,215.447,229.581,198.193z"/>
<path style="fill:#F2C42C;" d="M135.06,198.193c0-63.863,47.908-116.532,109.744-124.043c-4.99-0.606-10.069-0.925-15.223-0.925
	c-69.018,0-124.967,55.949-124.967,124.967c0,17.254,13.988,31.242,31.242,31.242l0,0c5.529,0,10.718-1.442,15.223-3.961
	C141.523,220.13,135.06,209.919,135.06,198.193z"/>
<path style="fill:#E34B4C;" d="M230.118,62.309c-0.885,0-1.784-0.155-2.662-0.483c-3.931-1.467-5.931-5.839-4.476-9.771
	c0.073-0.204,2.403-6.781,2.26-14.894c-0.179-10.066-4.021-17.95-11.421-23.433c-3.377-2.503-4.087-7.269-1.585-10.647
	c2.503-3.377,7.27-4.087,10.647-1.584c21.829,16.173,18.943,43.613,14.368,55.862C236.107,60.418,233.203,62.309,230.118,62.309z"/>
<path style="fill:#FF98C5;" d="M332.783,501.064c-9.483-12.499-22.937-15.966-22.937-15.966H149.317c0,0-13.454,3.467-22.937,15.966
	c-3.402,4.484-0.106,10.934,5.522,10.934h195.36C332.889,511.999,336.185,505.548,332.783,501.064z"/>
<path style="fill:#EB5E8A;" d="M156.826,501.064c9.483-12.499,22.937-15.966,22.937-15.966h-30.446c0,0-13.454,3.467-22.937,15.966
	c-3.402,4.484-0.106,10.934,5.522,10.934h30.446C156.719,511.999,153.424,505.548,156.826,501.064z"/>
<circle style="fill:#FD6F71;" cx="229.582" cy="64.616" r="27.976"/>
<g>
</g>
<g>
</g>
<g>
</g>
<g>
</g>
<g>
</g>
<g>
</g>
<g>
</g>
<g>
</g>
<g>
</g>
<g>
</g>
<g>
</g>
<g>
</g>
<g>
</g>
<g>
</g>
<g>
</g>
</svg>
