<?xml version="1.0" encoding="iso-8859-1"?>
<!-- Generator: Adobe Illustrator 19.0.0, SVG Export Plug-In . SVG Version: 6.00 Build 0)  -->
<svg version="1.1" id="Capa_1" xmlns="http://www.w3.org/2000/svg" xmlns:xlink="http://www.w3.org/1999/xlink" x="0px" y="0px"
	 viewBox="0 0 512 512" style="enable-background:new 0 0 512 512;" xml:space="preserve">
<path style="fill:#E0824A;" d="M257.238,406.716L54.47,439.917v46.279c0,14.25,11.552,25.803,25.803,25.803h352.924
	c14.25,0,25.803-11.552,25.803-25.803v-46.279L257.238,406.716z"/>
<path style="fill:#E0712F;" d="M85.376,486.197v-46.28l187.277-30.664l-15.415-2.536L54.47,439.917v46.28
	c0,14.25,11.552,25.803,25.803,25.803h30.905C96.928,512,85.376,500.448,85.376,486.197z"/>
<g>
	<rect x="67.836" y="156.237" style="fill:#C86D5C;" width="33.192" height="190.099"/>
	<rect x="409.498" y="156.237" style="fill:#C86D5C;" width="33.192" height="190.099"/>
</g>
<g>
	<path style="fill:#AD4F3D;" d="M67.836,228.12c4.068,0.872,8.222,1.414,12.431,1.567c0.924,0.033,1.852,0.05,2.784,0.05
		c6.165,0,12.188-0.743,17.98-2.14v-71.365H67.836V228.12z"/>
	<path style="fill:#AD4F3D;" d="M442.696,156.233h-33.194v71.365c5.792,1.397,11.815,2.14,17.98,2.14
		c0.931,0,1.859-0.018,2.788-0.05c4.207-0.152,8.36-0.695,12.427-1.567V156.233z"/>
</g>
<path style="fill:#7CB777;" d="M253.797,0c128.576,0,204.592,75.292,215.401,149.373c3.665,25.118-14.681,48.509-40.048,49.428
	c-0.553,0.02-1.109,0.03-1.669,0.03c-20.108,0-37.153-13.111-43.054-31.251v0.001c-5.901,18.139-22.946,31.25-43.053,31.25
	c-20.108,0-37.154-13.111-43.054-31.251v0.001c-5.901,18.139-22.946,31.25-43.053,31.25s-37.152-13.111-43.053-31.25v-0.001
	c-5.901,18.139-22.946,31.251-43.054,31.251c-20.107,0-37.152-13.111-43.053-31.25v-0.001
	c-5.901,18.139-22.946,31.251-43.054,31.251c-0.558,0-1.115-0.01-1.668-0.03c-25.367-0.919-43.714-24.31-40.048-49.428
	C52.143,75.292,128.159,0,256.735,0H253.797z"/>
<path style="fill:#35925D;" d="M82.541,149.373C92.717,79.636,160.681,8.838,275.87,0.772c-6.709-0.47-13.577-0.726-20.604-0.758
	C127.584,0.587,52.102,75.575,41.333,149.373c-3.665,25.118,14.681,48.509,40.048,49.428c0.553,0.021,1.11,0.03,1.669,0.03
	c7.594,0,14.751-1.873,21.036-5.178C89.011,185.273,79.853,167.794,82.541,149.373z"/>
<g>
	<path style="fill:#3A484A;" d="M172.615,113.876c-4.267,0-7.726-3.459-7.726-7.726V90.926c0-4.267,3.459-7.726,7.726-7.726
		c4.267,0,7.726,3.459,7.726,7.726v15.224C180.341,110.417,176.882,113.876,172.615,113.876z"/>
	<path style="fill:#3A484A;" d="M340.856,113.876c-4.267,0-7.726-3.459-7.726-7.726V90.926c0-4.267,3.459-7.726,7.726-7.726
		s7.726,3.459,7.726,7.726v15.224C348.582,110.417,345.123,113.876,340.856,113.876z"/>
	<path style="fill:#3A484A;" d="M256.735,122.003c-10.321,0-20.008-4.311-26.579-11.828c-2.809-3.213-2.481-8.094,0.731-10.902
		c3.213-2.808,8.093-2.481,10.902,0.732c3.636,4.159,9.083,6.545,14.945,6.545s11.309-2.385,14.945-6.544
		c2.808-3.213,7.689-3.541,10.902-0.732c3.213,2.808,3.541,7.689,0.732,10.902C276.744,117.692,267.056,122.003,256.735,122.003z"/>
</g>
<polygon style="fill:#FA9F6A;" points="257.238,342.453 54.47,367.825 54.47,439.917 459,439.917 459,367.825 "/>
<polygon style="fill:#E0712F;" points="272.652,344.392 257.238,342.453 54.47,367.825 54.47,439.918 85.376,439.918 
	85.376,367.825 "/>
<path style="fill:#FADC60;" d="M459.005,317.079H54.465c-6.699,0-12.129,5.43-12.129,12.129v26.489
	c0,6.699,5.43,12.129,12.129,12.129h404.539c6.699,0,12.129-5.43,12.129-12.129v-26.489
	C471.134,322.51,465.703,317.079,459.005,317.079z"/>
<path style="fill:#F2C42C;" d="M73.241,355.698v-26.489c0-6.698,5.43-12.129,12.129-12.129H54.465
	c-6.699,0-12.129,5.43-12.129,12.129v26.489c0,6.698,5.43,12.129,12.129,12.129h30.905
	C78.672,367.827,73.241,362.397,73.241,355.698z"/>
<g>
</g>
<g>
</g>
<g>
</g>
<g>
</g>
<g>
</g>
<g>
</g>
<g>
</g>
<g>
</g>
<g>
</g>
<g>
</g>
<g>
</g>
<g>
</g>
<g>
</g>
<g>
</g>
<g>
</g>
</svg>
