<?xml version="1.0" encoding="iso-8859-1"?>
<!-- Generator: Adobe Illustrator 19.0.0, SVG Export Plug-In . SVG Version: 6.00 Build 0)  -->
<svg version="1.1" id="Capa_1" xmlns="http://www.w3.org/2000/svg" xmlns:xlink="http://www.w3.org/1999/xlink" x="0px" y="0px"
	 viewBox="0 0 512 512" style="enable-background:new 0 0 512 512;" xml:space="preserve">
<path style="fill:#FA9F6A;" d="M356.881,36.281L256,18.14l-100.882,18.14c-17.535,23.866-31.161,48.153-41.525,72.48L256,133.387
	l142.406-24.625C388.042,84.434,374.417,60.147,356.881,36.281z"/>
<path style="fill:#E0712F;" d="M144.499,108.761c10.364-24.328,23.989-48.614,41.525-72.48l85.429-15.361L256,18.141l-100.882,18.14
	c-17.535,23.866-31.161,48.153-41.525,72.48L256,133.387l15.453-2.672L144.499,108.761z"/>
<path style="fill:#85E7FF;" d="M376.478,480.316C366.321,499.77,346.231,512,324.283,512H187.716
	c-21.947,0-42.038-12.23-52.195-31.684c-33.808-64.744-86.927-219.011-21.926-371.554h284.811
	C463.406,261.304,410.287,415.572,376.478,480.316z"/>
<path style="fill:#57D0E6;" d="M166.427,480.316C132.618,415.572,79.5,261.304,144.5,108.761h-30.905
	c-65.001,152.543-11.882,306.811,21.926,371.554C145.679,499.77,165.769,512,187.716,512h30.905
	C196.675,512,176.584,499.77,166.427,480.316z"/>
<g>
	<path style="fill:#3A484A;" d="M314.484,448.929H197.515c-4.268,0-7.726-3.459-7.726-7.726c0-4.267,3.458-7.726,7.726-7.726h116.97
		c4.268,0,7.726,3.459,7.726,7.726C322.212,445.47,318.752,448.929,314.484,448.929z"/>
	<path style="fill:#3A484A;" d="M302.685,478.172h-93.37c-4.268,0-7.726-3.459-7.726-7.726c0-4.267,3.458-7.726,7.726-7.726h93.37
		c4.268,0,7.726,3.459,7.726,7.726C310.411,474.713,306.953,478.172,302.685,478.172z"/>
</g>
<polygon style="fill:#E0824A;" points="335.887,204.103 356.844,209.408 355.736,230.997 374.199,242.243 366.775,262.547 
	381.103,278.735 368.026,295.949 376.944,315.641 359.374,328.235 362.093,349.682 341.59,356.537 337.867,377.832 316.255,378.341 
	306.42,397.592 285.619,391.708 270.546,407.205 252.403,395.45 233.433,405.816 219.56,389.235 198.378,393.55 190.009,373.617 
	168.495,371.495 166.373,349.981 146.441,341.613 150.754,320.43 134.175,306.557 144.54,287.586 132.786,269.444 148.282,254.371 
	142.398,233.57 161.649,223.735 162.158,202.123 183.452,198.399 190.308,177.897 211.755,180.615 224.349,163.046 244.042,171.964 
	261.255,158.887 277.443,173.215 297.747,165.792 308.993,184.254 330.583,183.146 "/>
<circle style="fill:#FADC60;" cx="256.103" cy="283.629" r="89.461"/>
<g>
	<path style="fill:#3A484A;" d="M204.551,293.088c-4.268,0-7.726-3.459-7.726-7.726v-9.312c0-4.267,3.458-7.726,7.726-7.726
		c4.268,0,7.726,3.459,7.726,7.726v9.312C212.277,289.628,208.818,293.088,204.551,293.088z"/>
	<path style="fill:#3A484A;" d="M307.449,293.088c-4.268,0-7.726-3.459-7.726-7.726v-9.312c0-4.267,3.458-7.726,7.726-7.726
		c4.268,0,7.726,3.459,7.726,7.726v9.312C315.176,289.628,311.717,293.088,307.449,293.088z"/>
	<path style="fill:#3A484A;" d="M256,298.058c-7.178,0-13.928-3.01-18.515-8.26c-2.809-3.213-2.481-8.094,0.732-10.902
		s8.094-2.481,10.901,0.732c1.653,1.891,4.162,2.977,6.882,2.977c2.72,0,5.227-1.085,6.882-2.976
		c2.807-3.213,7.689-3.541,10.901-0.732c3.213,2.808,3.542,7.689,0.732,10.902C269.928,295.047,263.179,298.058,256,298.058z"/>
</g>
<path style="fill:#EFEDEE;" d="M356.879,0H155.12c-10.02,0-18.143,8.123-18.143,18.143l0,0c0,10.02,8.123,18.143,18.143,18.143
	h201.76c10.02,0,18.143-8.123,18.143-18.143l0,0C375.022,8.123,366.9,0,356.879,0z"/>
<path style="fill:#D2D2D2;" d="M167.883,18.143L167.883,18.143C167.883,8.123,176.006,0,186.026,0H155.12
	c-10.02,0-18.143,8.123-18.143,18.143l0,0c0,10.021,8.123,18.143,18.143,18.143h30.905
	C176.006,36.285,167.883,28.162,167.883,18.143z"/>
<g>
</g>
<g>
</g>
<g>
</g>
<g>
</g>
<g>
</g>
<g>
</g>
<g>
</g>
<g>
</g>
<g>
</g>
<g>
</g>
<g>
</g>
<g>
</g>
<g>
</g>
<g>
</g>
<g>
</g>
</svg>
