<?xml version="1.0" encoding="iso-8859-1"?>
<!-- Generator: Adobe Illustrator 19.0.0, SVG Export Plug-In . SVG Version: 6.00 Build 0)  -->
<svg version="1.1" id="Capa_1" xmlns="http://www.w3.org/2000/svg" xmlns:xlink="http://www.w3.org/1999/xlink" x="0px" y="0px"
	 viewBox="0 0 512 512" style="enable-background:new 0 0 512 512;" xml:space="preserve">
<rect x="223.901" y="149.866" transform="matrix(-0.9231 -0.3846 0.3846 -0.9231 344.7205 666.6357)" style="fill:#EFEDEE;" width="30.238" height="297.964"/>
<path style="fill:#E34B4C;" d="M134.599,121.398l-48.393,9.138c-8.742,20.982,1.181,45.079,22.163,53.82l0,0
	c20.982,8.742,45.079-1.181,53.82-22.163L134.599,121.398z"/>
<path style="fill:#D2D2D2;" d="M282.355,155.509L235.108,268.91c4.137,2.855,8.593,5.311,13.342,7.289
	c4.735,1.973,9.607,3.407,14.575,4.331l47.242-113.391L282.355,155.509z"/>
<g>
	<path style="fill:#E34B4C;" d="M286.566,184.712l-48.394,9.138c-8.742,20.982,1.181,45.079,22.163,53.82l0,0
		c20.982,8.742,45.079-1.181,53.82-22.163L286.566,184.712z"/>
	<path style="fill:#E34B4C;" d="M438.533,248.027l-48.393,9.138l0,0c-8.742,20.982,1.181,45.079,22.163,53.82l0,0
		c20.982,8.742,45.079-1.181,53.82-22.163L438.533,248.027z"/>
</g>
<g>
	<path style="fill:#FD6F71;" d="M369.833,51.25l-14.518-31.512l-0.005-0.013c0,0,0,0-0.013,0.005
		c-0.005,0.004-0.025,0.019-0.034,0.026l-28.733,9.631l-84.704,59.16l-30.236,72.572l26.58,32.727l75.986,31.659l48.392-9.135
		l26.166-62.803L369.833,51.25z"/>
	<path style="fill:#FD6F71;" d="M86.208,130.533l75.986,31.658l93.615-64.543l47.035-59.021l52.452-18.897
		c0.013-0.005,0.013-0.005,0.013-0.005C250.396-23.985,129.914,25.63,86.208,130.533z"/>
	<path style="fill:#FD6F71;" d="M466.121,288.817c43.706-104.903-5.908-225.386-110.811-269.092l0.005,0.013
		c0.003,0.003,0.006,0.006,0.01,0.009l-0.016-0.011l23.519,50.549l-8.784,74.958l20.095,111.918l0.008-0.002l-0.002,0.004
		L466.121,288.817z"/>
</g>
<g>
	<path style="fill:#D2D2D2;" d="M210.582,153.056l-48.393,9.138c-8.742,20.982,1.181,45.079,22.163,53.82l0,0
		c20.982,8.742,45.079-1.181,53.82-22.163L210.582,153.056z"/>
	<path style="fill:#D2D2D2;" d="M362.55,216.37l-48.393,9.138c-8.742,20.982,1.181,45.079,22.163,53.82l0,0
		c20.982,8.742,45.079-1.181,53.82-22.163L362.55,216.37z"/>
</g>
<g>
	<path style="fill:#EFEDEE;" d="M390.144,257.163l-75.986-31.658c57.483-89.381,41.372-204.213,41.157-205.766
		C461.582,117.145,390.144,257.163,390.144,257.163z"/>
	<path style="fill:#EFEDEE;" d="M238.171,193.846l-75.977-31.654c0,0,49.109-149.321,193.101-142.461
		C354.041,20.67,261.163,90.095,238.171,193.846z"/>
</g>
<g>
	<path style="fill:#3A484A;" d="M240.456,108.835c-0.991,0-1.996-0.192-2.969-0.596c-3.938-1.641-5.802-6.165-4.16-10.104
		l5.201-12.482c1.642-3.939,6.167-5.8,10.104-4.16c3.938,1.641,5.802,6.165,4.16,10.104l-5.201,12.482
		C246.353,107.046,243.481,108.835,240.456,108.835z"/>
	<path style="fill:#3A484A;" d="M378.393,166.304c-0.991,0-1.996-0.192-2.969-0.596c-3.938-1.641-5.802-6.165-4.16-10.103
		l5.2-12.482c1.642-3.939,6.164-5.801,10.104-4.161c3.938,1.641,5.802,6.165,4.16,10.103l-5.2,12.482
		C384.292,164.514,381.419,166.304,378.393,166.304z"/>
	<path style="fill:#3A484A;" d="M316.37,146.194c-4.275,0-8.592-0.85-12.69-2.558c-8.693-3.621-15.34-10.656-18.238-19.299
		c-1.356-4.046,0.824-8.425,4.871-9.782c4.041-1.357,8.425,0.824,9.782,4.87c1.48,4.415,4.954,8.042,9.529,9.947
		c4.578,1.907,9.597,1.82,13.775-0.238c3.827-1.886,8.461-0.311,10.345,3.517c1.886,3.828,0.312,8.46-3.516,10.345
		C325.904,145.124,321.162,146.194,316.37,146.194z"/>
</g>
<path style="fill:#F2C42C;" d="M256,430.101c0,0-131.569-45.945-256,5.054v73h129l109-38L256,430.101z"/>
<path style="fill:#FADC60;" d="M512,399.156c0,0-255-24-383,109h383V399.156z"/>
<g>
</g>
<g>
</g>
<g>
</g>
<g>
</g>
<g>
</g>
<g>
</g>
<g>
</g>
<g>
</g>
<g>
</g>
<g>
</g>
<g>
</g>
<g>
</g>
<g>
</g>
<g>
</g>
<g>
</g>
</svg>
