<?xml version="1.0" encoding="iso-8859-1"?>
<!-- Generator: Adobe Illustrator 19.0.0, SVG Export Plug-In . SVG Version: 6.00 Build 0)  -->
<svg version="1.1" id="Capa_1" xmlns="http://www.w3.org/2000/svg" xmlns:xlink="http://www.w3.org/1999/xlink" x="0px" y="0px"
	 viewBox="0 0 512.001 512.001" style="enable-background:new 0 0 512.001 512.001;" xml:space="preserve">
<g>
	<ellipse style="fill:#E34B4C;" cx="191.398" cy="293.736" rx="10.217" ry="23.616"/>
	<ellipse style="fill:#E34B4C;" cx="170.022" cy="375.697" rx="33.392" ry="12.362"/>
</g>
<path style="fill:#FADC60;" d="M500.589,43.498c-1.854-10.696-10.233-19.075-20.929-20.929
	c-44.49-7.712-96.651,9.277-136.277,48.904c-44.719,44.719-60.609,105.399-44.703,153.006
	c47.607,15.906,108.286,0.016,153.006-44.703C491.312,140.148,508.301,87.988,500.589,43.498z"/>
<path style="fill:#FD6F71;" d="M324.345,198.813c-4.557-34.806,10.717-75.349,40.873-105.506
	c30.096-30.096,70.175-45.532,105.504-40.871c4.661,35.328-10.777,75.409-40.871,105.504
	C399.694,188.096,359.15,203.37,324.345,198.813z"/>
<path style="fill:#E34B4C;" d="M324.345,198.813c26.277,3.44,55.822-4.429,81.702-21.465c13.78-43.098,6.079-80.121-4.682-110.816
	c-12.898,6.808-25.186,15.814-36.146,26.775C335.062,123.464,319.787,164.007,324.345,198.813z"/>
<path style="fill:#FADC60;" d="M319.075,13.196c4.102-4.129,8.062-7.688,11.675-10.692c6.472-5.386,16.248-1.595,17.644,6.715
	c10.555,62.421,95.797,138.48-51.536,264.235c1.263-16.807,1.507-30.104,1.043-40.918L319.075,13.196z"/>
<path style="fill:#FD6F71;" d="M274.985,115.183c-1.177,71.267,20.472,61.232,22.917,117.353
	c32.657-31.857,50.441-61.531,54.195-90.241c3.736-28.483-6.813-54.399-17.01-79.46c-6.559-16.109-13.254-32.568-16.01-49.639
	C299.045,33.355,275.785,67.039,274.985,115.183z"/>
<path style="fill:#E34B4C;" d="M299.74,96.661c-5.258-12.92-10.278-25.258-13.117-36.068c-6.709,15.525-11.291,33.692-11.639,54.588
	c-1.177,71.267,20.472,61.232,22.917,117.353c10.849-10.583,20.047-20.925,27.644-31.071
	C325.672,160.415,311.489,125.532,299.74,96.661z"/>
<path style="fill:#FADC60;" d="M463.67,250.373c4.129-4.102,7.688-8.062,10.692-11.675c5.386-6.472,1.595-16.248-6.715-17.644
	c-62.421-10.555-138.48-95.797-264.235,51.536c16.807-1.263,30.104-1.507,40.918-1.043L463.67,250.373z"/>
<path style="fill:#FD6F71;" d="M361.684,294.464c-71.267,1.177-61.232-20.472-117.353-22.917
	c31.857-32.657,61.531-50.441,90.241-54.195c28.483-3.736,54.399,6.813,79.46,17.01c16.109,6.559,32.568,13.254,49.639,16.01
	C443.511,270.403,409.828,293.663,361.684,294.464z"/>
<path style="fill:#E34B4C;" d="M278.988,241.273c-11.293,8.069-22.825,18.144-34.658,30.274
	c56.122,2.446,46.086,24.095,117.353,22.917c23.021-0.383,42.728-5.908,59.24-13.753c-11.3-2.723-24.37-8.035-38.099-13.623
	C353.176,255.023,319.581,241.358,278.988,241.273z"/>
<path style="fill:#FADC60;" d="M219.978,62.981c4.833-4.863,9.497-9.057,13.753-12.595c7.623-6.345,19.14-1.878,20.784,7.91
	c12.434,73.53,112.846,163.126-60.709,311.262c1.489-19.798,1.776-35.461,1.228-48.2L219.978,62.981z"/>
<path style="fill:#FD6F71;" d="M168.04,183.118c-1.387,83.951,24.116,72.129,26.996,138.239
	c38.469-37.527,59.418-72.483,63.84-106.301c4.401-33.553-8.025-64.079-20.038-93.601c-7.726-18.976-15.613-38.365-18.86-58.473
	C196.383,86.727,168.983,126.406,168.04,183.118z"/>
<path style="fill:#E34B4C;" d="M193.099,180.483c-6.957-17.094-13.527-33.241-15.794-46.644c-0.129-0.77-0.282-1.529-0.449-2.283
	c-5.168,15.284-8.498,32.452-8.816,51.563c-1.387,83.95,24.116,72.129,26.996,138.239c9.51-9.276,17.944-18.395,25.327-27.378
	C221.166,249.478,205.787,211.664,193.099,180.483z"/>
<path style="fill:#FADC60;" d="M416.506,346.849c4.863-4.833,9.057-9.497,12.595-13.753c6.345-7.623,1.878-19.14-7.91-20.784
	c-73.53-12.434-163.126-112.846-311.262,60.709c19.798-1.489,35.461-1.776,48.2-1.228L416.506,346.849z"/>
<path style="fill:#FD6F71;" d="M296.368,398.789c-83.95,1.387-72.129-24.116-138.239-26.996
	c37.527-38.469,72.483-59.418,106.301-63.84c33.553-4.401,64.079,8.025,93.601,20.038c18.976,7.726,38.365,15.613,58.473,18.86
	C392.76,370.445,353.082,397.844,296.368,398.789z"/>
<path style="fill:#E34B4C;" d="M345.682,389.528c-13.438-2.273-29.585-8.843-46.681-15.8c-31.453-12.8-67.105-27.307-110.062-27.307
	c-1.14,0-2.281,0.012-3.42,0.033c-8.987,7.385-18.11,15.824-27.39,25.337c66.11,2.88,54.288,28.383,138.239,26.996
	c19.101-0.318,36.26-3.645,51.538-8.808C347.17,389.817,346.431,389.655,345.682,389.528z"/>
<path style="fill:#FADC60;" d="M110.106,143.938c5.138-5.172,10.098-9.629,14.622-13.391c8.105-6.746,20.35-1.996,22.097,8.409
	c13.219,78.176,119.977,173.435-64.545,330.931c1.582-21.05,1.888-37.702,1.306-51.246L110.106,143.938z"/>
<path style="fill:#FD6F71;" d="M54.886,271.668c-1.474,89.256,25.639,76.687,28.702,146.975
	c40.9-39.899,63.173-77.063,67.875-113.019c4.679-35.673-8.532-68.129-21.304-99.517c-8.215-20.175-16.599-40.789-20.05-62.168
	C85.019,169.185,55.889,211.371,54.886,271.668z"/>
<path style="fill:#E34B4C;" d="M78.301,381.07c2.606,9.644,4.583,21.416,5.287,37.573c22.631-22.077,39.549-43.315,50.953-63.977
	C115.718,360.421,96.998,369.208,78.301,381.07z"/>
<path style="fill:#FADC60;" d="M335.548,456.722c5.171-5.138,9.629-10.098,13.391-14.622c6.746-8.105,1.996-20.35-8.409-22.097
	c-78.177-13.22-173.435-119.977-330.932,64.544c21.05-1.582,37.702-1.888,51.246-1.306L335.548,456.722z"/>
<path style="fill:#FD6F71;" d="M207.819,511.943c-89.256,1.474-76.687-25.639-146.975-28.702
	c39.899-40.9,77.063-63.173,113.019-67.874c35.673-4.679,68.129,8.532,99.517,21.304c20.175,8.215,40.789,16.599,62.168,20.05
	C310.301,481.809,268.116,510.939,207.819,511.943z"/>
<g>
</g>
<g>
</g>
<g>
</g>
<g>
</g>
<g>
</g>
<g>
</g>
<g>
</g>
<g>
</g>
<g>
</g>
<g>
</g>
<g>
</g>
<g>
</g>
<g>
</g>
<g>
</g>
<g>
</g>
</svg>
