<?xml version="1.0" encoding="iso-8859-1"?>
<!-- Generator: Adobe Illustrator 19.0.0, SVG Export Plug-In . SVG Version: 6.00 Build 0)  -->
<svg version="1.1" id="Capa_1" xmlns="http://www.w3.org/2000/svg" xmlns:xlink="http://www.w3.org/1999/xlink" x="0px" y="0px"
	 viewBox="0 0 512 512" style="enable-background:new 0 0 512 512;" xml:space="preserve">
<path style="fill:#FADC60;" d="M119.794,70.529L119.794,70.529c-55.88,0-101.179,45.299-101.179,101.179v168.584
	c0,55.88,45.299,101.179,101.179,101.179l0,0c55.88,0,101.179-45.299,101.179-101.179V171.708
	C220.973,115.828,175.674,70.529,119.794,70.529z"/>
<path style="fill:#F2C42C;" d="M42.309,340.291V171.708c0-51.872,39.036-94.618,89.332-100.485
	c-3.887-0.453-7.839-0.694-11.847-0.694l0,0c-55.88,0-101.179,45.299-101.179,101.179v168.584
	c0,55.88,45.299,101.179,101.179,101.179l0,0c4.008,0,7.96-0.24,11.847-0.693C81.345,434.909,42.309,392.163,42.309,340.291z"/>
<path style="fill:#FD6F71;" d="M140.225,146.196v-15.687c0-11.284-9.147-20.431-20.431-20.431s-20.431,9.147-20.431,20.431v15.687
	C43.008,155.92,0,205.149,0,264.239v30.171c0,11.284,9.147,20.431,20.431,20.431s20.431-9.147,20.431-20.431v-30.171
	c0-43.523,35.408-78.932,78.932-78.932s78.932,35.408,78.932,78.932v30.171c0,11.284,9.147,20.431,20.431,20.431
	c11.284,0,20.431-9.147,20.431-20.431v-30.171C239.588,205.149,196.58,155.92,140.225,146.196z"/>
<g>
	<path style="fill:#3A484A;" d="M59.026,360.957c-4.268,0-7.726-3.459-7.726-7.726v-10.998c0-4.267,3.458-7.726,7.726-7.726
		s7.726,3.459,7.726,7.726v10.998C66.753,357.498,63.293,360.957,59.026,360.957z"/>
	<path style="fill:#3A484A;" d="M180.562,360.957c-4.268,0-7.726-3.459-7.726-7.726v-10.998c0-4.267,3.458-7.726,7.726-7.726
		c4.268,0,7.726,3.459,7.726,7.726v10.998C188.288,357.498,184.83,360.957,180.562,360.957z"/>
	<path style="fill:#3A484A;" d="M119.794,366.827c-8.076,0-15.662-3.381-20.816-9.278c-2.808-3.213-2.48-8.094,0.733-10.902
		s8.093-2.48,10.902,0.733c2.218,2.538,5.564,3.994,9.18,3.994s6.963-1.456,9.182-3.995c2.808-3.213,7.688-3.54,10.902-0.731
		c3.212,2.808,3.541,7.689,0.731,10.902C135.455,363.446,127.868,366.827,119.794,366.827z"/>
</g>
<path style="fill:#FADC60;" d="M392.206,70.529L392.206,70.529c55.88,0,101.179,45.299,101.179,101.179v168.584
	c0,55.88-45.299,101.179-101.179,101.179l0,0c-55.88,0-101.179-45.299-101.179-101.179V171.708
	C291.027,115.828,336.326,70.529,392.206,70.529z"/>
<path style="fill:#F2C42C;" d="M314.721,340.291V171.708c0-51.872,39.036-94.618,89.332-100.485
	c-3.887-0.453-7.839-0.694-11.847-0.694l0,0c-55.879,0-101.179,45.299-101.179,101.179v168.584
	c0,55.88,45.299,101.179,101.179,101.179l0,0c4.008,0,7.96-0.24,11.847-0.693C353.757,434.909,314.721,392.163,314.721,340.291z"/>
<path style="fill:#FD6F71;" d="M371.775,146.196v-15.687c0-11.284,9.147-20.431,20.431-20.431s20.431,9.147,20.431,20.431v15.687
	C468.992,155.92,512,205.149,512,264.239v30.171c0,11.284-9.147,20.431-20.431,20.431s-20.431-9.147-20.431-20.431v-30.171
	c0-43.523-35.408-78.932-78.932-78.932c-43.523,0-78.932,35.408-78.932,78.932v30.171c0,11.284-9.147,20.431-20.431,20.431
	c-11.284,0-20.431-9.147-20.431-20.431v-30.171C272.412,205.149,315.42,155.92,371.775,146.196z"/>
<g>
	<path style="fill:#3A484A;" d="M452.975,360.957c-4.268,0-7.726-3.459-7.726-7.726v-10.998c0-4.267,3.458-7.726,7.726-7.726
		c4.268,0,7.726,3.459,7.726,7.726v10.998C460.701,357.498,457.243,360.957,452.975,360.957z"/>
	<path style="fill:#3A484A;" d="M331.437,360.957c-4.268,0-7.726-3.459-7.726-7.726v-10.998c0-4.267,3.458-7.726,7.726-7.726
		c4.268,0,7.726,3.459,7.726,7.726v10.998C339.163,357.498,335.705,360.957,331.437,360.957z"/>
	<path style="fill:#3A484A;" d="M392.206,366.827c-8.076,0-15.663-3.381-20.816-9.278c-2.808-3.213-2.48-8.094,0.733-10.902
		c3.212-2.808,8.093-2.48,10.902,0.733c2.218,2.538,5.564,3.994,9.18,3.994c3.616,0,6.962-1.456,9.18-3.994
		c2.809-3.214,7.691-3.541,10.902-0.733c3.213,2.808,3.542,7.689,0.733,10.902C407.868,363.446,400.282,366.827,392.206,366.827z"/>
</g>
<g>
</g>
<g>
</g>
<g>
</g>
<g>
</g>
<g>
</g>
<g>
</g>
<g>
</g>
<g>
</g>
<g>
</g>
<g>
</g>
<g>
</g>
<g>
</g>
<g>
</g>
<g>
</g>
<g>
</g>
</svg>
