<?xml version="1.0" encoding="iso-8859-1"?>
<!-- Generator: Adobe Illustrator 19.0.0, SVG Export Plug-In . SVG Version: 6.00 Build 0)  -->
<svg version="1.1" id="Capa_1" xmlns="http://www.w3.org/2000/svg" xmlns:xlink="http://www.w3.org/1999/xlink" x="0px" y="0px"
	 viewBox="0 0 512 512" style="enable-background:new 0 0 512 512;" xml:space="preserve">
<path style="fill:#E0712F;" d="M55.652,377.707c-39.461,106.624,38.172,159.221,79.844,122.794L55.652,377.707z"/>
<path style="fill:#FA9F6A;" d="M78.113,238.157c-75.78,63.875-36.336,192.87,39.889,250.972s115.669-20.788,115.669-20.788
	L78.113,238.157z"/>
<g>
	<path style="fill:#E0712F;" d="M149.076,152.186c-87.043,45.371-122.757,181.295,5.172,309.224
		c60.234,60.234,122.428,22.619,134.24,5.446C300.3,449.683,149.076,152.186,149.076,152.186z"/>
	<path style="fill:#E0712F;" d="M453.15,154.445c3.467,43.865,9.886,87.424,18.12,130.649
		c11.711,61.472-2.964,118.639-106.211,153.704l38.429-382.711C440.157,91.013,450.172,116.768,453.15,154.445z"/>
</g>
<path style="fill:#FA9F6A;" d="M245.768,87.547c41.144-12.797,67.834-38.42,86.209-73.736c8.194-15.748,29.685-18.617,41.702-5.55
	c27.431,29.831,60.925,92.116,36.428,208.483c-8.854,42.061,1.701,81.242,0.557,123.163c-1.246,45.649-28.377,93.875-69.456,115.914
	c-48.747,26.153-102.841,3.243-141.452-30.37c-67.164-58.468-101.391-154.733-67.947-240.18
	C153.005,131.117,191.547,104.411,245.768,87.547z"/>
<g>
	<path style="fill:#3A484A;" d="M306.877,380.676c-1.977,0-3.955-0.754-5.463-2.263c-3.017-3.017-3.017-7.91,0-10.926l11.45-11.45
		c3.017-3.017,7.91-3.017,10.926,0c3.017,3.017,3.017,7.91,0,10.926l-11.45,11.45C310.831,379.921,308.854,380.676,306.877,380.676z
		"/>
	<path style="fill:#3A484A;" d="M180.343,254.143c-1.977,0-3.955-0.754-5.463-2.263c-3.017-3.017-3.017-7.91,0-10.926l11.45-11.45
		c3.017-3.017,7.91-3.017,10.926,0c3.017,3.017,3.017,7.91,0,10.926l-11.45,11.45C184.298,253.388,182.321,254.143,180.343,254.143z
		"/>
	<path style="fill:#3A484A;" d="M258.178,332.29c-9.641,0-19.057-3.947-26.142-11.031c-7.662-7.664-11.654-18.053-10.952-28.505
		c0.285-4.257,3.954-7.478,8.227-7.191c4.258,0.285,7.477,3.969,7.191,8.227c-0.403,6.003,1.952,12.033,6.461,16.543
		c4.508,4.509,10.543,6.864,16.543,6.46c4.268-0.294,7.941,2.933,8.227,7.191c0.286,4.258-2.933,7.941-7.191,8.227
		C259.752,332.264,258.964,332.29,258.178,332.29z"/>
</g>
<g>
</g>
<g>
</g>
<g>
</g>
<g>
</g>
<g>
</g>
<g>
</g>
<g>
</g>
<g>
</g>
<g>
</g>
<g>
</g>
<g>
</g>
<g>
</g>
<g>
</g>
<g>
</g>
<g>
</g>
</svg>
