<?xml version="1.0" encoding="iso-8859-1"?>
<!-- Generator: Adobe Illustrator 19.0.0, SVG Export Plug-In . SVG Version: 6.00 Build 0)  -->
<svg version="1.1" id="Capa_1" xmlns="http://www.w3.org/2000/svg" xmlns:xlink="http://www.w3.org/1999/xlink" x="0px" y="0px"
	 viewBox="0 0 512 512" style="enable-background:new 0 0 512 512;" xml:space="preserve">
<path style="fill:#FF98C5;" d="M325.568,114.937c40.568-66.702-43.699-77.694-58.037-112.224c-0.915-2.204-3.519-3.316-5.819-2.379
	c-15.26,6.223-64.541,29.111-69.846,66.996v75.882H320.35L325.568,114.937z"/>
<path style="fill:#EB5E8A;" d="M272.35,10.75c-2.001-2.552-3.647-5.215-4.818-8.037c-0.915-2.204-3.519-3.316-5.819-2.379
	c-15.26,6.223-64.541,29.111-69.846,66.996v75.882h30.905V96.315C215.741,53.776,248.423,25.335,272.35,10.75z"/>
<path style="fill:#FADC60;" d="M378.107,214.319c26.019-65.368-16.476-105.538-111.18-106.686
	c-36.444-0.442-59.942-18.389-75.062-40.304c0,0-63.57,36.668-39.785,93.575v71.827h191.339L378.107,214.319z"/>
<path style="fill:#F2C42C;" d="M204.858,82.821c-4.903-4.774-9.21-10.008-12.993-15.491c0,0-63.569,36.668-39.785,93.575v71.828
	h30.905l5.011-45.681C163.389,139.022,186.359,102.279,204.858,82.821z"/>
<path style="fill:#FA9F6A;" d="M256,294.566l-136.696,37.621l23.298,136.22C146.909,493.588,168.738,512,194.284,512h123.432
	c25.547,0,47.375-18.412,51.682-43.593l23.298-136.22L256,294.566z"/>
<path style="fill:#E0712F;" d="M173.507,468.407l-23.298-136.22l121.243-33.369L256,294.566l-136.696,37.621l23.298,136.22
	C146.909,493.588,168.738,512,194.284,512h30.905C199.643,512,177.815,493.588,173.507,468.407z"/>
<path style="fill:#FF98C5;" d="M256,197.154c-54.195,6.866-86.326-18.804-103.92-36.249c0,0-79.625,26.707-32.776,96.04L256,294.566
	l136.696-37.621C419.911,209.211,373.773,182.234,256,197.154z"/>
<path style="fill:#EB5E8A;" d="M150.21,256.945c-30.765-45.531-6.989-72.678,12.963-85.952c-4.205-3.471-7.892-6.916-11.091-10.088
	c0,0-79.625,26.707-32.776,96.04L256,294.566l15.453-4.253L150.21,256.945z"/>
<g>
	<path style="fill:#3A484A;" d="M182.325,426.883c-4.268,0-7.726-3.459-7.726-7.726v-13.334c0-4.267,3.458-7.726,7.726-7.726
		s7.726,3.459,7.726,7.726v13.334C190.051,423.423,186.593,426.883,182.325,426.883z"/>
	<path style="fill:#3A484A;" d="M329.675,426.883c-4.268,0-7.726-3.459-7.726-7.726v-13.334c0-4.267,3.458-7.726,7.726-7.726
		s7.726,3.459,7.726,7.726v13.334C337.401,423.423,333.943,426.883,329.675,426.883z"/>
	<path style="fill:#3A484A;" d="M256,434c-9.316,0-18.064-3.895-24.001-10.687c-2.809-3.213-2.481-8.093,0.731-10.902
		c3.214-2.809,8.094-2.482,10.902,0.731c3.002,3.434,7.51,5.404,12.367,5.404c4.858,0,9.365-1.97,12.366-5.403
		c2.809-3.214,7.691-3.541,10.902-0.732c3.213,2.808,3.542,7.689,0.733,10.902C274.065,430.105,265.317,434,256,434z"/>
</g>
<path style="fill:#FADC60;" d="M392.696,256.945H119.304c-14.813,0-26.821,11.351-26.821,25.353v24.538
	c0,14.002,12.008,25.353,26.821,25.353h273.391c14.813,0,26.821-11.351,26.821-25.353v-24.538
	C419.517,268.295,407.509,256.945,392.696,256.945z"/>
<path style="fill:#F2C42C;" d="M123.389,306.836v-24.538c0-14.001,12.008-25.353,26.821-25.353h-30.905
	c-14.813,0-26.821,11.351-26.821,25.353v24.538c0,14.002,12.008,25.353,26.821,25.353h30.905
	C135.397,332.187,123.389,320.837,123.389,306.836z"/>
<g>
</g>
<g>
</g>
<g>
</g>
<g>
</g>
<g>
</g>
<g>
</g>
<g>
</g>
<g>
</g>
<g>
</g>
<g>
</g>
<g>
</g>
<g>
</g>
<g>
</g>
<g>
</g>
<g>
</g>
</svg>
