<?xml version="1.0" encoding="iso-8859-1"?>
<!-- Generator: Adobe Illustrator 19.0.0, SVG Export Plug-In . SVG Version: 6.00 Build 0)  -->
<svg version="1.1" id="Capa_1" xmlns="http://www.w3.org/2000/svg" xmlns:xlink="http://www.w3.org/1999/xlink" x="0px" y="0px"
	 viewBox="0 0 512 512" style="enable-background:new 0 0 512 512;" xml:space="preserve">
<path style="fill:#57D0E6;" d="M358.556,495.949c-14.929-18.678-50.69-30.794-50.69-30.794h-53.064c0,0-35.761,12.115-50.69,30.794
	c-5.174,6.473-0.608,16.051,7.678,16.051h139.088C359.164,512,363.73,502.421,358.556,495.949z"/>
<ellipse style="fill:#85E7FF;" cx="281.332" cy="429.689" rx="52.642" ry="41.074"/>
<path style="fill:#EFEDEE;" d="M328.844,113.692l-28.629-9.543l19.447-58.342c1.317-3.949,4.205-7.178,7.984-8.925L407.447,0
	l12.66,27.393l-73.88,34.146L328.844,113.692z"/>
<polygon style="fill:#D2D2D2;" points="345.819,62.764 314.01,62.764 300.215,104.149 328.844,113.692 "/>
<path style="fill:#57D0E6;" d="M384.942,226.326c-7.137-57.692,0.848-95.339,8.567-116.476c3.787-10.369-3.954-21.332-14.992-21.332
	H158.615c0,0,31.183,40.236,19.112,137.807c-12.071,97.572-39.23,214.255,103.607,214.255S397.013,323.898,384.942,226.326z"/>
<path style="fill:#FA9F6A;" d="M357.924,252.56c-0.986-7.403-2.002-15.058-2.927-22.532c-0.533-4.265-0.986-8.439-1.358-12.523
	l-72.303-23.367l-72.303,23.367c-0.372,4.084-0.825,8.258-1.358,12.523c-0.925,7.474-1.941,15.128-2.927,22.532
	c-3.843,28.819-7.977,59.78-6.89,86.134l83.479,21.081l83.479-21.081C365.9,312.341,361.766,281.379,357.924,252.56z"/>
<path style="fill:#E0824A;" d="M218.459,338.695c-1.087-26.354,3.047-57.316,6.89-86.134c0.986-7.403,2.002-15.058,2.927-22.532
	c0.533-4.265,0.986-8.439,1.358-12.523c0.216-2.314,0.405-4.592,0.577-6.846l-21.181,6.846c-0.372,4.084-0.825,8.259-1.358,12.523
	c-0.463,3.736-0.948,7.519-1.441,11.293c-0.246,1.886-0.494,3.771-0.743,5.646c-0.248,1.876-0.497,3.743-0.743,5.593
	c-2.161,16.211-4.415,33.099-5.78,49.464c-0.455,5.455-0.811,10.852-1.032,16.146c-0.147,3.529-0.235,7.013-0.251,10.439
	c-0.016,3.425,0.038,6.791,0.173,10.085l20.911,5.28C218.642,342.234,218.534,340.479,218.459,338.695z"/>
<path style="fill:#FADC60;" d="M353.638,217.504H209.031c3.993-42.721,0.192-75.271-5.694-98.809h155.994
	C353.447,142.233,349.645,174.785,353.638,217.504z"/>
<path style="fill:#F2C42C;" d="M210.678,183.847c-0.016,10.432-0.523,21.643-1.646,33.658h20.604l0,0
	c3.993-42.721,0.192-75.271-5.693-98.809h-20.604c0.552,2.207,1.085,4.493,1.596,6.859
	C208.335,141.327,210.715,160.664,210.678,183.847z"/>
<circle style="fill:#35925D;" cx="158.616" cy="88.513" r="66.724"/>
<circle style="fill:#FADC60;" cx="158.616" cy="88.513" r="39.466"/>
<path style="fill:#7CB777;" d="M198.079,88.518c0-2.644-0.265-5.227-0.761-7.726h-20.048l14.174-14.174
	c-2.889-4.321-6.606-8.039-10.926-10.926l-14.175,14.175V49.817c-2.499-0.496-5.082-0.761-7.726-0.761
	c-2.644,0-5.227,0.265-7.726,0.761v20.048l-14.174-14.174c-4.321,2.889-8.039,6.606-10.926,10.926l14.174,14.174h-20.048
	c-0.497,2.499-0.761,5.082-0.761,7.726s0.265,5.227,0.761,7.726h20.048l-14.174,14.174c2.889,4.321,6.606,8.039,10.926,10.926
	l14.174-14.174v20.048c2.499,0.497,5.082,0.761,7.726,0.761c2.644,0,5.227-0.265,7.726-0.761v-20.048l14.175,14.175
	c4.321-2.889,8.038-6.606,10.926-10.926l-14.175-14.175h20.048C197.813,93.745,198.079,91.164,198.079,88.518z"/>
<g>
	<path style="fill:#3A484A;" d="M230.595,294.431c-4.267,0-7.726-3.459-7.726-7.726v-9.183c0-4.267,3.459-7.726,7.726-7.726
		c4.267,0,7.726,3.459,7.726,7.726v9.183C238.322,290.973,234.862,294.431,230.595,294.431z"/>
	<path style="fill:#3A484A;" d="M332.074,294.431c-4.267,0-7.726-3.459-7.726-7.726v-9.183c0-4.267,3.459-7.726,7.726-7.726
		c4.267,0,7.726,3.459,7.726,7.726v9.183C339.801,290.973,336.341,294.431,332.074,294.431z"/>
	<path style="fill:#3A484A;" d="M281.335,299.332c-7.11,0-13.796-2.982-18.341-8.182c-2.808-3.213-2.481-8.094,0.732-10.902
		s8.094-2.481,10.902,0.732c1.61,1.843,4.055,2.899,6.706,2.899c2.652,0,5.095-1.056,6.705-2.899
		c2.809-3.213,7.689-3.541,10.902-0.732c3.213,2.808,3.541,7.689,0.732,10.902C295.13,296.351,288.445,299.332,281.335,299.332z"/>
</g>
<path style="fill:#FD6F71;" d="M364.813,338.695c-0.875,20.963-5.059,39.009-15.32,50.727
	c-12.191,13.922-35.116,20.983-68.16,20.983s-55.968-7.062-68.16-20.983c-10.261-11.718-14.444-29.764-15.32-50.727H364.813z"/>
<path style="fill:#E34B4C;" d="M281.335,410.405c0.004,0,0.007,0,0.011,0c1.706,0,3.38-0.023,5.03-0.062
	c0.1-0.002,0.2-0.004,0.3-0.006c1.68-0.042,3.335-0.102,4.96-0.182c-27.541-1.354-46.977-8.308-57.858-20.732
	c-10.261-11.718-14.444-29.765-15.32-50.727h-20.604c0.055,1.31,0.123,2.609,0.204,3.895c0.975,15.438,3.909,29.117,9.967,39.595
	c0.505,0.874,1.031,1.725,1.58,2.552c1.098,1.655,2.286,3.219,3.569,4.684C225.367,403.344,248.291,410.405,281.335,410.405z"/>
<g>
</g>
<g>
</g>
<g>
</g>
<g>
</g>
<g>
</g>
<g>
</g>
<g>
</g>
<g>
</g>
<g>
</g>
<g>
</g>
<g>
</g>
<g>
</g>
<g>
</g>
<g>
</g>
<g>
</g>
</svg>
