<?xml version="1.0" encoding="iso-8859-1"?>
<!-- Generator: Adobe Illustrator 19.0.0, SVG Export Plug-In . SVG Version: 6.00 Build 0)  -->
<svg version="1.1" id="Capa_1" xmlns="http://www.w3.org/2000/svg" xmlns:xlink="http://www.w3.org/1999/xlink" x="0px" y="0px"
	 viewBox="0 0 512.001 512.001" style="enable-background:new 0 0 512.001 512.001;" xml:space="preserve">
<path style="fill:#E34B4C;" d="M182.037,460.039h147.929L357,40.738c0,0-46.929-11.222-100.999-11.222s-101,11.222-101,11.222
	L182.037,460.039z"/>
<g>
	<path style="fill:#FD6F71;" d="M510.451,209.45c-9.44-27.141-27.057-74.17-41.229-91.176c0,0-4.999-3.652-13.824-8.835
		l-28.392,6.856l-12.191-26.392c-10.437-4.009-22.006-7.682-34.35-10.396L279.466,92.769
		c10.457,53.316,13.783,99.704,14.232,142.644l14.12,19.721l-14.559,26.331c-1.765,67.721-7.07,129.473,3.55,201.019
		c0,0,22.056-1.592,48.541-7.223l13.805-22.408l34.899,7.349c9.12-4.07,17.445-8.845,24.158-14.446c0,0-4.03-33.198-8.019-74.209
		l-30.606-27.301l25.291-35.339c-2.418-34.84-3.479-66.629-0.949-81.473c0,0,12.039,10.534,21.696,25.271
		c7.584,11.574,22.447,15.954,34.999,10.132c11.21-5.199,24.945-12.222,38.54-20.825C510.043,235.129,514.68,221.608,510.451,209.45
		z"/>
	<path style="fill:#FD6F71;" d="M201.166,250.296l17.139-14.885c0.449-42.94,3.775-89.328,14.232-142.644l-101-13.263
		c-12.345,2.714-23.914,6.386-34.35,10.396l-11.559,27.688l-29.024-8.152c-8.825,5.183-13.824,8.835-13.824,8.835
		c-14.172,17.006-31.789,64.035-41.229,91.176c-4.229,12.158,0.408,25.679,11.286,32.563c13.594,8.603,27.33,15.625,38.54,20.825
		c12.554,5.823,27.415,1.442,34.999-10.132c9.657-14.737,21.696-25.271,21.696-25.271c2.53,14.844,1.469,46.633-0.949,81.473
		l20.333,35.339l-25.647,27.301c-3.989,41.012-8.019,74.209-8.019,74.209c6.713,5.601,15.038,10.375,24.158,14.446l41.487-10.385
		l7.216,25.443c26.484,5.632,48.541,7.223,48.541,7.223c10.62-71.546,5.316-133.299,3.55-201.019L201.166,250.296z"/>
</g>
<path style="fill:#7CB777;" d="M352.767,219.109l-22.801,6.696l-36.38,40.732c-0.081,5.009-0.194,9.988-0.327,14.925
	c12.682,0.429,26.352-3.959,37.921-13.232C347.431,255.204,355.175,236.045,352.767,219.109z"/>
<path style="fill:#FADC60;" d="M293.585,266.538c0.163-10.202,0.225-20.557,0.112-31.126c1.958-2.091,4.111-4.07,6.427-5.928
	c16.261-13.028,36.635-16.405,52.642-10.375L293.585,266.538z"/>
<path style="fill:#7CB777;" d="M218.652,277.689c-0.071-2.815-0.133-5.652-0.183-8.488c-0.021-0.888-0.041-1.775-0.051-2.663
	l-16.03-30.869l-43.151-16.559c-2.408,16.935,5.335,36.094,21.587,49.122c11.569,9.274,25.239,13.66,37.921,13.232
	C218.713,280.209,218.683,278.954,218.652,277.689z"/>
<path style="fill:#FADC60;" d="M218.417,266.538l-59.182-47.429c16.007-6.03,36.38-2.653,52.642,10.375
	c2.316,1.856,4.469,3.836,6.427,5.928C218.165,245.781,218.226,256.171,218.417,266.538z"/>
<path style="fill:#7CB777;" d="M435.545,98.859l-28.729,24.862v33.82c17.047-1.357,34.055-13.089,43.215-31.8
	c2.612-5.335,4.387-10.834,5.366-16.303C450.083,106.316,443.381,102.633,435.545,98.859z"/>
<path style="fill:#FADC60;" d="M435.545,98.859l-28.729,58.682c-9.386-14.293-10.539-34.921-1.377-53.632
	c2.571-5.244,5.743-9.937,9.376-14.007C422.355,92.788,429.313,95.849,435.545,98.859z"/>
<path style="fill:#7CB777;" d="M94.659,110.426L76.457,98.859l0,0l0,0c-2.795,1.356-5.572,2.742-8.325,4.183
	c-4.346,2.275-8.202,4.448-11.528,6.396c0.98,5.468,2.755,10.967,5.366,16.303c9.161,18.71,26.168,30.443,43.215,31.8
	L94.659,110.426z"/>
<path style="fill:#FADC60;" d="M105.186,157.54c0,0-28.727-58.677-28.729-58.682c1.735-1.145,3.974-1.882,5.866-2.744
	c4.87-2.218,9.819-4.271,14.813-6.192c0.021-0.01,0.031-0.01,0.05-0.021c3.631,4.07,6.804,8.764,9.376,14.007
	C115.724,122.619,114.572,143.247,105.186,157.54z"/>
<g>
	<path style="fill:#EFEDEE;" d="M163.03,347.011c0,6.733-4.06,13.385-11.518,15.701c-2.571,0.795-4.877,2.204-6.723,4.06
		c-1.846,1.856-3.254,4.142-4.06,6.723c-2.316,7.457-8.968,11.518-15.701,11.518c-4.969,0-9.977-2.214-13.314-6.927
		c-2.387-3.377-5.948-5.693-9.906-6.54c1.939-19.996,3.866-41.858,5.316-62.64c0.275,0.071,0.551,0.163,0.826,0.255
		c5.111,1.735,10.743,0.837,15.058-2.387c3.03-2.264,6.427-3.285,9.733-3.285c8.56,0,16.568,6.835,16.446,16.629v0.214
		c0,5.305,2.582,10.294,6.917,13.365C160.817,337.034,163.03,342.043,163.03,347.011z"/>
	<path style="fill:#EFEDEE;" d="M410.193,371.547c-3.958,0.847-7.519,3.163-9.906,6.54c-3.336,4.713-8.346,6.927-13.313,6.927
		c-6.733,0-13.385-4.06-15.701-11.518c-0.806-2.581-2.214-4.867-4.06-6.723c-1.846-1.856-4.153-3.265-6.723-4.06
		c-7.457-2.316-11.518-8.968-11.518-15.701c0-4.969,2.214-9.977,6.927-13.314c4.336-3.071,6.917-8.059,6.917-13.365v-0.214
		c-0.123-9.794,7.886-16.629,16.446-16.629c3.306,0,6.702,1.02,9.733,3.285c4.315,3.223,9.947,4.122,15.058,2.387
		c0.275-0.092,0.551-0.183,0.826-0.255C406.327,329.688,408.256,351.551,410.193,371.547z"/>
</g>
<path style="fill:#7CB777;" d="M126.549,445.96c-3.602,4.488-6.469,9.305-8.6,14.242c7.101,3.173,14.681,5.917,22.363,8.294
	l22.72-12.009l12.64-32.115C158.736,421.965,139.576,429.709,126.549,445.96z"/>
<path style="fill:#FADC60;" d="M166.652,475.26c-8.519-1.816-17.497-4.04-26.342-6.764l35.36-44.124
	C181.486,439.809,178.548,459.305,166.652,475.26z"/>
<path style="fill:#7CB777;" d="M357,435.963l-20.67-11.59c-5.815,15.435-2.877,34.931,9.018,50.888
	c8.519-1.816,17.497-4.04,26.342-6.764L357,435.963z"/>
<path style="fill:#FADC60;" d="M394.055,460.202c-7.101,3.173-14.681,5.917-22.363,8.294l-35.36-44.124
	c16.935-2.408,36.094,5.335,49.122,21.587C389.055,450.449,391.922,455.264,394.055,460.202z"/>
<g>
	<path style="fill:#FD8485;" d="M357,40.738l-77.535,52.03c0,0,21.994,16.967,31.459,38.078c3.765,8.399,14.626,10.723,21.543,4.65
		c28.021-24.6,47.997-55.991,47.997-55.991C376.384,55.021,357,40.738,357,40.738z"/>
	<path style="fill:#FD8485;" d="M155.001,40.738l77.535,52.03c0,0-21.994,16.967-31.459,38.078
		c-3.765,8.399-14.627,10.723-21.543,4.65c-28.021-24.6-47.997-55.991-47.997-55.991C135.618,55.021,155.001,40.738,155.001,40.738z
		"/>
</g>
<g>
</g>
<g>
</g>
<g>
</g>
<g>
</g>
<g>
</g>
<g>
</g>
<g>
</g>
<g>
</g>
<g>
</g>
<g>
</g>
<g>
</g>
<g>
</g>
<g>
</g>
<g>
</g>
<g>
</g>
</svg>
