<?xml version="1.0" encoding="iso-8859-1"?>
<!-- Generator: Adobe Illustrator 19.0.0, SVG Export Plug-In . SVG Version: 6.00 Build 0)  -->
<svg version="1.1" id="Capa_1" xmlns="http://www.w3.org/2000/svg" xmlns:xlink="http://www.w3.org/1999/xlink" x="0px" y="0px"
	 viewBox="0 0 512 512" style="enable-background:new 0 0 512 512;" xml:space="preserve">
<path style="fill:#FD6F71;" d="M256,210.081l-191.639,26.61l44.268,227.938c5.697,27.584,29.988,47.371,58.154,47.371h178.434
	c28.166,0,52.457-19.787,58.154-47.371l44.268-227.938L256,210.081z"/>
<path style="fill:#E34B4C;" d="M149.836,464.63l-44.268-227.939l171.036-23.749L256,210.081l-191.639,26.61l44.268,227.939
	C114.326,492.214,138.616,512,166.782,512h41.207C179.824,512,155.533,492.214,149.836,464.63z"/>
<path style="fill:#B8B8B8;" d="M455.039,314.761H56.961c-25.404,0-46.072-20.668-46.072-46.072l-0.002-49.007
	c-0.021-8.932-0.04-17.367,5.702-23.123c3.285-3.294,7.851-4.963,13.57-4.963h42.315c4.267,0,7.726,3.459,7.726,7.726
	c0,4.267-3.459,7.726-7.726,7.726H30.159c-1.814,0-2.547,0.34-2.63,0.424c-1.215,1.218-1.198,8.076-1.189,12.174l0.002,1.676v47.366
	c0,16.884,13.735,30.619,30.619,30.619h398.078c16.884,0,30.619-13.735,30.619-30.619l0.002-49.041
	c0.009-4.098,0.025-10.957-1.189-12.175c-0.084-0.084-0.816-0.424-2.63-0.424h-25.585c-4.267,0-7.726-3.459-7.726-7.726
	c0-4.267,3.459-7.726,7.726-7.726h25.584c5.719,0,10.284,1.67,13.57,4.963c5.743,5.756,5.724,14.193,5.703,23.124l-0.002,1.64
	v47.366C501.111,294.092,480.444,314.761,455.039,314.761z"/>
<path style="fill:#EFEDEE;" d="M309.1,286.468H202.901c-7.637,0-13.828,6.191-13.828,13.828v13.476
	c0,7.637,6.191,13.828,13.828,13.828H309.1c7.637,0,13.828-6.191,13.828-13.828v-13.476
	C322.928,292.658,316.737,286.468,309.1,286.468z"/>
<path style="fill:#FADC60;" d="M419.098,22.069L357.883,2.145c-22.821-7.428-47.342,5.052-54.77,27.873l0,0
	c-7.428,22.821,5.052,47.342,27.873,54.77l15.692,5.107l-38.695,118.891l29.832,9.709L376.51,99.603l15.692,5.107
	c22.821,7.428,47.342-5.052,54.77-27.873l0,0C454.398,54.017,441.919,29.497,419.098,22.069z M400.292,79.851l-61.215-19.924
	c-9.077-2.955-14.058-12.741-11.103-21.818c2.954-9.076,12.741-14.057,21.818-11.103l61.215,19.924
	c9.077,2.955,14.058,12.741,11.103,21.818C419.156,77.824,409.369,82.805,400.292,79.851z"/>
<polygon style="fill:#F2C42C;" points="333.283,131.048 307.983,208.785 337.815,218.495 366.276,131.048 "/>
<path style="fill:#EFEDEE;" d="M447.64,161.953H64.361c-14.016,0-25.377,11.362-25.377,25.377v23.983
	c0,14.016,11.362,25.377,25.377,25.377H447.64c14.016,0,25.377-11.362,25.377-25.377v-23.983
	C473.017,173.315,461.655,161.953,447.64,161.953z"/>
<path style="fill:#D2D2D2;" d="M80.191,211.313v-23.983c0-14.016,11.362-25.377,25.377-25.377H64.361
	c-14.016,0-25.377,11.362-25.377,25.377v23.983c0,14.016,11.362,25.377,25.377,25.377h41.207
	C91.552,236.691,80.191,225.33,80.191,211.313z"/>
<g>
	<path style="fill:#3A484A;" d="M178.481,210.319c-4.267,0-7.726-3.459-7.726-7.726v-14.029c0-4.267,3.459-7.726,7.726-7.726
		c4.267,0,7.726,3.459,7.726,7.726v14.029C186.207,206.86,182.748,210.319,178.481,210.319z"/>
	<path style="fill:#3A484A;" d="M333.518,210.319c-4.267,0-7.726-3.459-7.726-7.726v-14.029c0-4.267,3.459-7.726,7.726-7.726
		c4.267,0,7.726,3.459,7.726,7.726v14.029C341.245,206.86,337.785,210.319,333.518,210.319z"/>
	<path style="fill:#3A484A;" d="M256,217.807c-9.687,0-18.78-4.049-24.95-11.106c-2.808-3.213-2.481-8.094,0.732-10.902
		c3.211-2.807,8.094-2.481,10.902,0.732c3.235,3.701,8.088,5.824,13.315,5.824c5.227,0,10.08-2.123,13.316-5.824
		c2.807-3.213,7.688-3.541,10.902-0.731c3.213,2.808,3.541,7.689,0.731,10.902C274.779,213.76,265.686,217.807,256,217.807z"/>
</g>
<g>
</g>
<g>
</g>
<g>
</g>
<g>
</g>
<g>
</g>
<g>
</g>
<g>
</g>
<g>
</g>
<g>
</g>
<g>
</g>
<g>
</g>
<g>
</g>
<g>
</g>
<g>
</g>
<g>
</g>
</svg>
