<?xml version="1.0" encoding="iso-8859-1"?>
<!-- Generator: Adobe Illustrator 19.0.0, SVG Export Plug-In . SVG Version: 6.00 Build 0)  -->
<svg version="1.1" id="Capa_1" xmlns="http://www.w3.org/2000/svg" xmlns:xlink="http://www.w3.org/1999/xlink" x="0px" y="0px"
	 viewBox="0 0 512 512" style="enable-background:new 0 0 512 512;" xml:space="preserve">
<path style="fill:#F2C42C;" d="M338.733,215.596c-2.363,0-4.757-0.609-6.944-1.888c-6.565-3.843-8.772-12.28-4.929-18.845
	L436.924,6.819c3.843-6.565,12.276-8.773,18.845-4.929c6.565,3.843,8.772,12.28,4.929,18.845L350.633,208.778
	C348.07,213.157,343.465,215.596,338.733,215.596z"/>
<path style="fill:#EFEDEE;" d="M175.858,59.236c-8.278-17.73-25.459-29.632-44.967-31.15l-89.461-6.96
	c-6.257-0.487-11.724,4.191-12.211,10.448l-0.801,10.297c-0.487,6.257,4.191,11.724,10.448,12.211l89.461,6.96
	c7.613,0.592,14.348,5.259,17.578,12.177l42.814,91.702l29.953-13.985L175.858,59.236z"/>
<path style="fill:#FF98C5;" d="M447.034,37.41l-15.236-8.918c-33.564-19.646-76.701-8.363-96.347,25.202l0,0
	c-5.527,9.443-2.353,21.579,7.091,27.106c9.443,5.527,21.579,2.353,27.106-7.091c-5.527,9.443-2.353,21.579,7.091,27.106
	c9.443,5.527,21.579,2.353,27.106-7.091c-5.527,9.443-2.353,21.579,7.091,27.106c9.443,5.527,21.579,2.353,27.106-7.091
	c-5.527,9.443-2.353,21.579,7.091,27.106c9.443,5.527,21.579,2.353,27.106-7.091l0,0C491.882,100.191,480.598,57.055,447.034,37.41z
	"/>
<path style="fill:#EB5E8A;" d="M356.055,63.996L356.055,63.996c17.123-29.254,52.088-41.574,83.009-31.251l-7.266-4.253
	c-33.564-19.647-76.701-8.363-96.347,25.202l0,0c-5.527,9.444-2.353,21.579,7.091,27.106c4.119,2.411,8.749,3.164,13.12,2.466
	C352.565,77.406,352.46,70.136,356.055,63.996z"/>
<path style="fill:#7CB777;" d="M483.57,249.609C483.57,383.08,477.695,512,256.218,512S28.866,383.08,28.866,249.609l24.607-31.81
	H444.64L483.57,249.609z"/>
<path style="fill:#EFEDEE;" d="M256.218,132.365c236.522,0,227.352,117.244,227.352,117.244l-22.735-9.553
	c-14.541-6.11-30.929-6.11-45.47,0l0,0c-14.541,6.11-30.929,6.11-45.47,0l0,0c-14.541-6.11-30.929-6.11-45.47,0l0,0
	c-14.541,6.11-30.929,6.11-45.47,0l0,0c-14.541-6.11-30.929-6.11-45.47,0l0,0c-14.541,6.11-30.929,6.11-45.47,0l0,0
	c-14.541-6.11-30.929-6.11-45.47,0l0,0c-14.541,6.11-30.929,6.11-45.47,0l0,0c-14.541-6.11-30.929-6.11-45.47,0l-22.735,9.553
	C28.866,249.609,19.695,132.365,256.218,132.365z"/>
<path style="fill:#35925D;" d="M256.218,512c0.251,0,0.497-0.003,0.747-0.003c4.939-0.009,9.878-0.075,14.815-0.218
	c0.046-0.001,0.092-0.003,0.137-0.004c1.639-0.048,3.267-0.103,4.902-0.167C75.582,503.742,70.073,378.809,70.073,249.609
	c0,0-1.072-13.738,7.003-31.809H53.473l-24.607,31.809c0,48.962-0.314,99.908,15.19,146.916C66.354,464.127,121.256,512,256.218,512
	z"/>
<path style="fill:#D2D2D2;" d="M71.362,235.551c5.984-29.944,38.06-97.733,205.456-102.874c-0.054-0.001-0.107-0.002-0.161-0.004
	c-6.809-0.258-13.627-0.308-20.44-0.308c-157.066,0-205.786,51.703-220.795,86.439c-0.353,0.817-0.687,1.626-1.004,2.423
	c-1.426,3.589-2.493,6.97-3.29,10.062c-0.354,1.374-0.656,2.691-0.912,3.944c-0.255,1.252-0.466,2.44-0.639,3.556
	c-0.215,1.395-0.373,2.68-0.485,3.837c-0.091,0.926-0.152,1.772-0.195,2.53c-0.159,2.842-0.032,4.452-0.032,4.452l22.735-9.553
	C57.94,237.393,64.629,235.892,71.362,235.551z"/>
<g>
	<path style="fill:#3A484A;" d="M145.889,373.31c-4.267,0-7.726-3.459-7.726-7.726v-19.968c0-4.267,3.459-7.726,7.726-7.726
		c4.267,0,7.726,3.459,7.726,7.726v19.968C153.616,369.851,150.157,373.31,145.889,373.31z"/>
	<path style="fill:#3A484A;" d="M366.546,373.31c-4.267,0-7.726-3.459-7.726-7.726v-19.968c0-4.267,3.459-7.726,7.726-7.726
		c4.267,0,7.726,3.459,7.726,7.726v19.968C374.272,369.851,370.813,373.31,366.546,373.31z"/>
	<path style="fill:#3A484A;" d="M256.219,383.968c-12.842,0-24.888-5.354-33.048-14.689c-2.809-3.213-2.481-8.094,0.731-10.902
		c3.213-2.808,8.093-2.481,10.902,0.732c5.225,5.978,13.03,9.407,21.413,9.407c8.383,0,16.187-3.428,21.413-9.407
		c2.807-3.213,7.688-3.541,10.902-0.732c3.213,2.808,3.541,7.689,0.731,10.902C281.106,378.614,269.06,383.968,256.219,383.968z"/>
</g>
<g>
</g>
<g>
</g>
<g>
</g>
<g>
</g>
<g>
</g>
<g>
</g>
<g>
</g>
<g>
</g>
<g>
</g>
<g>
</g>
<g>
</g>
<g>
</g>
<g>
</g>
<g>
</g>
<g>
</g>
</svg>
