<?xml version="1.0" encoding="iso-8859-1"?>
<!-- Generator: Adobe Illustrator 19.0.0, SVG Export Plug-In . SVG Version: 6.00 Build 0)  -->
<svg version="1.1" id="Capa_1" xmlns="http://www.w3.org/2000/svg" xmlns:xlink="http://www.w3.org/1999/xlink" x="0px" y="0px"
	 viewBox="0 0 512 512" style="enable-background:new 0 0 512 512;" xml:space="preserve">
<path style="fill:#B8B8B8;" d="M275.62,0h-39.241c-10.502,0-19.015,8.513-19.015,19.015v75.013h77.27V19.015
	C294.635,8.513,286.121,0,275.62,0z"/>
<circle style="fill:#3A484A;" cx="256" cy="279.509" r="232.491"/>
<circle style="fill:#85E7FF;" cx="256" cy="279.509" r="189.419"/>
<path style="fill:#57D0E6;" d="M97.482,279.507c0-99.412,76.584-180.93,173.972-188.793c-5.097-0.412-10.249-0.63-15.453-0.63
	c-104.616,0-189.425,84.808-189.425,189.423s84.808,189.425,189.425,189.425c5.203,0,10.355-0.218,15.453-0.63
	C174.066,460.436,97.482,378.919,97.482,279.507z"/>
<ellipse transform="matrix(0.7071 -0.7071 0.7071 0.7071 -122.6598 262.8795)" style="fill:none;stroke:#000000;stroke-width:15;stroke-linecap:round;stroke-linejoin:round;stroke-miterlimit:10;" cx="255.994" cy="279.503" rx="25.397" ry="23.528"/>
<circle style="fill:#EFEDEE;" cx="256" cy="279.509" r="78.366"/>
<g>
	<polygon style="fill:#FA9F6A;" points="310.638,279.507 256,411.107 201.362,279.507 256,233.501 	"/>
	<polygon style="fill:#FA9F6A;" points="310.638,279.507 201.362,279.507 256,147.907 	"/>
	<polygon style="fill:#FA9F6A;" points="256,334.144 124.401,279.507 256,224.869 302.007,279.507 	"/>
	<polygon style="fill:#FA9F6A;" points="256,334.144 256,224.869 387.599,279.507 	"/>
</g>
<polygon style="fill:#E34B4C;" points="294.635,318.142 143.682,391.824 217.365,240.872 295.265,240.241 "/>
<polygon style="fill:#FD6F71;" points="294.635,318.142 217.365,240.872 368.318,167.189 "/>
<g>
	
		<ellipse transform="matrix(0.7071 -0.7071 0.7071 0.7071 -122.6598 262.8795)" style="fill:#EFEDEE;" cx="255.994" cy="279.503" rx="25.397" ry="23.528"/>
	<path style="fill:#EFEDEE;" d="M256,90.083c-2.589,0-5.162,0.067-7.726,0.17v27.745c0,4.267,3.458,7.726,7.726,7.726
		c4.268,0,7.726-3.459,7.726-7.726V90.253C261.162,90.15,258.59,90.083,256,90.083z"/>
	<path style="fill:#EFEDEE;" d="M445.255,271.78h-27.746c-4.268,0-7.726,3.459-7.726,7.726s3.458,7.726,7.726,7.726h27.746
		c0.103-2.564,0.17-5.138,0.17-7.726C445.423,276.918,445.358,274.344,445.255,271.78z"/>
	<path style="fill:#EFEDEE;" d="M256,433.29c-4.268,0-7.726,3.459-7.726,7.726v27.745c2.564,0.103,5.136,0.17,7.726,0.17
		c2.589,0,5.162-0.067,7.726-0.17v-27.745C263.726,436.748,260.268,433.29,256,433.29z"/>
	<path style="fill:#EFEDEE;" d="M66.745,287.233h27.746c4.268,0,7.726-3.459,7.726-7.726s-3.458-7.726-7.726-7.726H66.745
		c-0.103,2.564-0.17,5.138-0.17,7.726C66.576,282.097,66.642,284.669,66.745,287.233z"/>
</g>
<g>
</g>
<g>
</g>
<g>
</g>
<g>
</g>
<g>
</g>
<g>
</g>
<g>
</g>
<g>
</g>
<g>
</g>
<g>
</g>
<g>
</g>
<g>
</g>
<g>
</g>
<g>
</g>
<g>
</g>
</svg>
