<?xml version="1.0" encoding="iso-8859-1"?>
<!-- Generator: Adobe Illustrator 19.0.0, SVG Export Plug-In . SVG Version: 6.00 Build 0)  -->
<svg version="1.1" id="Capa_1" xmlns="http://www.w3.org/2000/svg" xmlns:xlink="http://www.w3.org/1999/xlink" x="0px" y="0px"
	 viewBox="0 0 512 512" style="enable-background:new 0 0 512 512;" xml:space="preserve">
<path style="fill:#B8B8B8;" d="M474.213,91.373L474.213,91.373l-7.585,1.264l-9.917-10.587c-27.506-9.512-59.494,0.817-76.68,29.988
	c-39.115-37.475-92.181-60.505-150.628-60.505c-120.268,0-217.766,97.497-217.766,217.767c0,42.358,12.107,81.883,33.03,115.327
	H414.14C533.686,219.899,517.777,124.035,474.213,91.373z"/>
<path style="fill:#D2D2D2;" d="M244.886,52.083c-5.115-0.36-10.277-0.551-15.484-0.551c-120.268,0-217.766,97.497-217.766,217.767
	c0,42.358,12.107,81.883,33.03,115.327h30.905c-20.923-33.444-33.03-72.969-33.03-115.327
	C42.541,154.217,131.816,59.996,244.886,52.083z"/>
<path style="fill:#85E7FF;" d="M512,316.343c-23.34-10.078-49.803-10.078-73.143,0l0,0c-23.34,10.078-49.803,10.078-73.143,0l0,0
	c-23.34-10.078-49.803-10.078-73.143,0l0,0c-23.34,10.078-49.803,10.078-73.143,0l0,0c-23.34-10.078-49.803-10.078-73.143,0l0,0
	c-23.34,10.078-49.803,10.078-73.143,0l0,0c-23.34-10.078-49.803-10.078-73.143,0v144.124h512V316.343z"/>
<g>
	
		<ellipse transform="matrix(-0.7071 -0.7071 0.7071 -0.7071 94.0162 299.5829)" style="fill:#3A484A;" cx="109.054" cy="130.32" rx="8.522" ry="16.348"/>
	<path style="fill:#3A484A;" d="M341.313,160.911c-3.018-3.017-7.91-3.017-10.927,0c-3.017,3.017-3.017,7.91,0,10.926l16.515,16.515
		c1.509,1.508,3.487,2.263,5.464,2.263s3.955-0.754,5.464-2.263c3.017-3.017,3.017-7.91,0-10.926L341.313,160.911z"/>
	<path style="fill:#3A484A;" d="M420.822,180.735c0.02,0,0.034,0,0.053,0c8.016,0,22.063,2.672,26.444,20.486
		c0.866,3.524,4.023,5.883,7.497,5.883c0.611,0,1.231-0.073,1.851-0.226c4.143-1.019,6.677-5.204,5.658-9.348
		c-1.881-7.651-4.999-13.489-8.726-17.955c24.48-35.774,22.794-72.697,20.615-88.204c-5.469-4.101-11.374-7.204-17.503-9.323
		l1.054,5.245c0.026,0.129,0.056,0.257,0.088,0.383c0.111,0.439,10.321,42.349-16.432,82.328
		c-8.327-4.145-16.655-4.722-20.559-4.722c-0.015,0-0.032,0-0.047,0c-4.268,0.005-7.722,3.469-7.717,7.736
		C413.101,177.283,416.559,180.735,420.822,180.735z"/>
</g>
<g>
</g>
<g>
</g>
<g>
</g>
<g>
</g>
<g>
</g>
<g>
</g>
<g>
</g>
<g>
</g>
<g>
</g>
<g>
</g>
<g>
</g>
<g>
</g>
<g>
</g>
<g>
</g>
<g>
</g>
</svg>
