<?xml version="1.0" encoding="iso-8859-1"?>
<!-- Generator: Adobe Illustrator 19.0.0, SVG Export Plug-In . SVG Version: 6.00 Build 0)  -->
<svg version="1.1" id="Capa_1" xmlns="http://www.w3.org/2000/svg" xmlns:xlink="http://www.w3.org/1999/xlink" x="0px" y="0px"
	 viewBox="0 0 512 512" style="enable-background:new 0 0 512 512;" xml:space="preserve">
<g>
	<path style="fill:#937FE6;" d="M68.985,31.908c6.318,48.954,44.705,229.363,111.063,303.153l19.114,2.729
		c-21.631-113.829-88.33-276.7-114.908-313.633C78.438,16.076,67.648,21.552,68.985,31.908z"/>
	<path style="fill:#937FE6;" d="M318.799,15.615c-29.21,39.79-90.484,198.249-84.572,304.13l14.858,17.372
		c61.821-98.126,85.764-267.026,88.635-314.662C338.349,12.033,324.978,7.199,318.799,15.615z"/>
</g>
<path style="fill:#E0712F;" d="M266.92,5.773c-22.168,44.102-56.172,210.559-32.693,313.972l17.546,14.651
	c44.6-107.057,40.053-277.585,34.944-325.033C285.6-1.018,271.61-3.556,266.92,5.773z"/>
<path style="fill:#FA9F6A;" d="M368.311,33.967C332.877,68.332,246.047,214.36,234.228,319.746l11.755,19.605
	c77.313-86.448,129.073-248.994,139.845-295.485C388.184,33.694,375.806,26.698,368.311,33.967z"/>
<path style="fill:#35925D;" d="M464.263,240.902c-49.359,0.421-148.761,10.724-230.035,78.844l-5.02,22.301
	c115.609-9.22,201.027-55.677,240.904-81.893C478.836,254.418,474.704,240.813,464.263,240.902z"/>
<path style="fill:#E0712F;" d="M26.767,74.995c14.205,47.273,69.774,200.518,157.901,259.504l22.815-1.415
	C166.307,224.663,79.935,94.954,43.615,63.998C35.668,57.224,23.762,64.995,26.767,74.995z"/>
<path style="fill:#FA9F6A;" d="M134.748,34.861c-4.418,49.162-9.906,212.079,49.919,299.638l21.702,7.181
	c2.155-115.956-29.707-268.499-51.89-310.753C149.626,21.683,135.682,24.462,134.748,34.861z"/>
<path style="fill:#35925D;" d="M12.94,303.837c-4.646,0.065-8.862,2.733-10.851,6.932l0,0c-3.053,6.445,0.087,14.129,6.788,16.568
	c24.534,8.931,77.43,31.259,90.365,61.695l39.717-62.624C138.96,326.41,78.971,302.907,12.94,303.837z"/>
<path style="fill:#7CB777;" d="M42.258,512c35.99-35.99,18.994-205.943,155.957-194.946
	c109.518,8.794,247.161,13.752,297.925,15.386c10.107,0.326,17.17,10.118,14.297,19.815l0,0c-1.466,4.948-5.304,8.842-10.236,10.362
	c-21.493,6.621-88.035,25.017-216.009,43.414C161.053,423.73,122.045,459.206,106.051,512H42.258z"/>
<g>
	<path style="fill:#3A484A;" d="M185.762,374.558c-4.268,0-7.726-3.459-7.726-7.726V353.42c0-4.267,3.458-7.726,7.726-7.726
		s7.726,3.459,7.726,7.726v13.412C193.488,371.099,190.03,374.558,185.762,374.558z"/>
	<path style="fill:#3A484A;" d="M333.976,374.558c-4.268,0-7.726-3.459-7.726-7.726V353.42c0-4.267,3.458-7.726,7.726-7.726
		c4.268,0,7.726,3.459,7.726,7.726v13.412C341.702,371.099,338.244,374.558,333.976,374.558z"/>
	<path style="fill:#3A484A;" d="M259.869,381.718c-9.357,0-18.144-3.912-24.107-10.732c-2.809-3.213-2.481-8.093,0.731-10.902
		c3.214-2.809,8.094-2.481,10.902,0.731c3.028,3.464,7.576,5.452,12.473,5.452c4.9,0,9.446-1.987,12.473-5.451
		c2.808-3.213,7.688-3.542,10.902-0.731c3.212,2.808,3.541,7.689,0.731,10.902C278.013,377.806,269.227,381.718,259.869,381.718z"/>
</g>
<g>
</g>
<g>
</g>
<g>
</g>
<g>
</g>
<g>
</g>
<g>
</g>
<g>
</g>
<g>
</g>
<g>
</g>
<g>
</g>
<g>
</g>
<g>
</g>
<g>
</g>
<g>
</g>
<g>
</g>
</svg>
