<?xml version="1.0" encoding="iso-8859-1"?>
<!-- Generator: Adobe Illustrator 19.0.0, SVG Export Plug-In . SVG Version: 6.00 Build 0)  -->
<svg version="1.1" id="Capa_1" xmlns="http://www.w3.org/2000/svg" xmlns:xlink="http://www.w3.org/1999/xlink" x="0px" y="0px"
	 viewBox="0 0 512 512" style="enable-background:new 0 0 512 512;" xml:space="preserve">
<path style="fill:#EB5E8A;" d="M504.429,252.946H335.875c1.17,7.437,1.773,15.006,1.773,22.682
	c0,55.511-31.486,105.443-81.657,140.117v30.396l84.285,8.066c96.726-26.218,165.942-96.268,165.942-178.578
	C506.217,267.951,505.599,260.384,504.429,252.946z"/>
<path style="fill:#FF98C5;" d="M174.333,275.628c0-7.676,0.603-15.244,1.773-22.682H7.553c-1.17,7.438-1.789,15.005-1.789,22.682
	c0,104.723,112.03,189.616,250.227,189.616c29.576,0,57.947-3.899,84.285-11.038C243.549,427.987,174.333,357.938,174.333,275.628z"
	/>
<g>
	<path style="fill:#3A484A;" d="M180.699,246.95l-82.514-63.179L50.7,51.754c-1.412-3.924-5.741-5.961-9.663-4.55
		c-3.925,1.411-5.962,5.738-4.551,9.663l46.368,128.911L2.961,246.95c-2.57,1.968-3.6,5.355-2.562,8.42
		c1.039,3.065,3.916,5.128,7.153,5.128h168.555c3.237,0,6.113-2.062,7.153-5.128C184.299,252.305,183.267,248.917,180.699,246.95z
		 M29.838,245.393l61.991-47.466l61.993,47.466H29.838z"/>
	<path style="fill:#3A484A;" d="M508.68,246.69l-79.554-60.913l46.368-128.911c1.411-3.924-0.625-8.251-4.551-9.663
		c-3.92-1.411-8.25,0.625-9.663,4.55l-47.485,132.017l-82.513,63.179c-2.57,1.968-3.6,5.355-2.562,8.42
		c1.039,3.065,3.916,5.128,7.153,5.128h168.554c0.007,0,0.013,0,0.02,0c4.172,0,7.552-3.38,7.552-7.552
		C512,250.343,510.685,248.048,508.68,246.69z M358.16,245.393l61.991-47.466l61.991,47.466H358.16z"/>
</g>
<g>
</g>
<g>
</g>
<g>
</g>
<g>
</g>
<g>
</g>
<g>
</g>
<g>
</g>
<g>
</g>
<g>
</g>
<g>
</g>
<g>
</g>
<g>
</g>
<g>
</g>
<g>
</g>
<g>
</g>
</svg>
