<?xml version="1.0" encoding="iso-8859-1"?>
<!-- Generator: Adobe Illustrator 19.0.0, SVG Export Plug-In . SVG Version: 6.00 Build 0)  -->
<svg version="1.1" id="Capa_1" xmlns="http://www.w3.org/2000/svg" xmlns:xlink="http://www.w3.org/1999/xlink" x="0px" y="0px"
	 viewBox="0 0 512 512" style="enable-background:new 0 0 512 512;" xml:space="preserve">
<g>
	<path style="fill:#FD6F71;" d="M126.424,35.181c-37.643,22.128-69.115,53.6-91.243,91.243l28.464,58.494l63.645-9.715
		c12.166-19.347,28.567-35.747,47.914-47.914l23.107-63.645L126.424,35.181z"/>
	<path style="fill:#FD6F71;" d="M175.203,384.711c-19.347-12.166-35.747-28.567-47.914-47.914l-49.511-20.016l-42.598,68.796
		c22.128,37.643,53.6,69.115,91.243,91.243l62.614-19.934L175.203,384.711z"/>
	<path style="fill:#FD6F71;" d="M385.576,35.181c37.643,22.128,69.115,53.6,91.243,91.243l-28.464,58.494l-63.645-9.715
		c-12.166-19.347-28.567-35.747-47.914-47.914L313.69,63.645L385.576,35.181z"/>
	<path style="fill:#FD6F71;" d="M336.797,384.711c19.347-12.166,35.747-28.567,47.914-47.914l49.51-20.016l42.598,68.796
		c-22.128,37.643-53.6,69.115-91.243,91.243l-62.614-19.934L336.797,384.711z"/>
</g>
<path style="fill:#E34B4C;" d="M66.086,126.424c19.74-33.582,46.933-62.231,79.294-83.737l-18.956-7.506l0,0
	c-35.29,20.745-65.157,49.703-86.985,84.259c-1.456,2.303-2.875,4.632-4.258,6.985l15.26,31.359
	C54.954,146.934,60.184,136.458,66.086,126.424z"/>
<g>
	<path style="fill:#EFEDEE;" d="M385.576,35.181l-48.779,92.108c-23.406-14.721-51.107-23.241-80.797-23.241
		s-57.391,8.52-80.797,23.241l-48.779-92.108C164.427,12.826,208.715,0,256,0S347.573,12.826,385.576,35.181z"/>
	<path style="fill:#EFEDEE;" d="M512,256c0,47.285-12.826,91.573-35.181,129.576l-92.108-48.779
		c14.721-23.406,23.241-51.107,23.241-80.797s-8.52-57.391-23.241-80.797l92.108-48.779C499.174,164.427,512,208.715,512,256z"/>
</g>
<path style="fill:#E34B4C;" d="M66.086,385.576c-5.178-8.802-9.837-17.945-13.952-27.381l-16.954,27.381
	c13.83,23.527,31.31,44.643,51.666,62.574c12.213,10.758,25.462,20.371,39.577,28.669l20.469-6.516
	C113.867,448.689,86.133,419.678,66.086,385.576z"/>
<g>
	<path style="fill:#EFEDEE;" d="M385.576,476.819C347.573,499.174,303.285,512,256,512s-91.573-12.826-129.576-35.181l48.779-92.108
		c23.406,14.721,51.107,23.241,80.797,23.241s57.391-8.52,80.797-23.241L385.576,476.819z"/>
	<path style="fill:#EFEDEE;" d="M104.048,256c0,29.69,8.52,57.391,23.241,80.797l-92.108,48.779C12.826,347.573,0,303.285,0,256
		s12.826-91.573,35.181-129.576l92.108,48.779C112.568,198.609,104.048,226.31,104.048,256z"/>
</g>
<g>
	<path style="fill:#D2D2D2;" d="M35.181,385.576l23.934-12.675C41.09,337.86,30.905,298.122,30.905,256s10.184-81.86,28.209-116.901
		l-23.934-12.675C12.826,164.427,0,208.715,0,256c0,15.935,1.469,31.905,4.412,47.567C9.836,332.418,20.298,360.274,35.181,385.576z
		"/>
	<path style="fill:#D2D2D2;" d="M134.464,50.362c7.336-5.446,14.955-10.532,22.865-15.182
		c33.833-19.902,72.648-32.242,114.123-34.713c-1.251-0.074-2.503-0.14-3.758-0.197c-2.542-0.117-5.088-0.199-7.633-0.237
		C258.71,0.013,257.357,0,256,0c-17.732,0-35.043,1.804-51.758,5.237c-27.36,5.62-53.745,15.783-77.818,29.943L134.464,50.362z"/>
</g>
<g>
	<path style="fill:#3A484A;" d="M192.403,66.852c-4.268,0-7.726-3.459-7.726-7.726v-11.51c0-4.267,3.458-7.726,7.726-7.726
		s7.726,3.459,7.726,7.726v11.51C200.129,63.392,196.67,66.852,192.403,66.852z"/>
	<path style="fill:#3A484A;" d="M319.598,66.852c-4.268,0-7.726-3.459-7.726-7.726v-11.51c0-4.267,3.458-7.726,7.726-7.726
		s7.726,3.459,7.726,7.726v11.51C327.325,63.392,323.866,66.852,319.598,66.852z"/>
	<path style="fill:#3A484A;" d="M256,72.996c-8.347,0-16.188-3.494-21.514-9.586c-2.809-3.213-2.481-8.093,0.731-10.902
		c3.213-2.808,8.092-2.481,10.902,0.731c2.391,2.735,5.992,4.304,9.88,4.304c3.889,0,7.489-1.568,9.88-4.304
		c2.808-3.213,7.688-3.541,10.902-0.731c3.212,2.809,3.541,7.689,0.731,10.902C272.188,69.501,264.346,72.996,256,72.996z"/>
</g>
<path style="fill:#D2D2D2;" d="M262.757,511.89c0.394-0.01,0.786-0.016,1.179-0.016c2.507-0.08,5.013-0.193,7.517-0.341
	c-41.475-2.47-80.29-14.811-114.123-34.713c-7.911-4.65-15.53-9.736-22.865-15.182l-8.041,15.182
	c1.188,0.698,2.382,1.388,3.581,2.068c4.808,2.725,9.705,5.294,14.681,7.701c18.697,9.045,38.662,15.883,59.557,20.175
	C220.957,510.196,238.267,512,256,512C258.253,512,260.505,511.89,262.757,511.89z"/>
<g>
</g>
<g>
</g>
<g>
</g>
<g>
</g>
<g>
</g>
<g>
</g>
<g>
</g>
<g>
</g>
<g>
</g>
<g>
</g>
<g>
</g>
<g>
</g>
<g>
</g>
<g>
</g>
<g>
</g>
</svg>
