<?xml version="1.0" encoding="iso-8859-1"?>
<!-- Generator: Adobe Illustrator 19.0.0, SVG Export Plug-In . SVG Version: 6.00 Build 0)  -->
<svg version="1.1" id="Capa_1" xmlns="http://www.w3.org/2000/svg" xmlns:xlink="http://www.w3.org/1999/xlink" x="0px" y="0px"
	 viewBox="0 0 511.998 511.998" style="enable-background:new 0 0 511.998 511.998;" xml:space="preserve">
<path style="fill:#B6A4FF;" d="M316.599,55.336c-31.715,9.687-42.316,49.251-19.694,73.497
	c-7.469,32.31,21.495,61.272,53.804,53.804c24.246,22.623,63.81,12.021,73.497-19.694l0,0c31.715-9.687,42.316-49.251,19.694-73.497
	c7.469-32.31-21.495-61.272-53.804-53.804C365.849,13.02,326.285,23.62,316.599,55.336L316.599,55.336z"/>
<path style="fill:#937FE6;" d="M350.709,182.637c-12.262,2.834-24.036,0.412-33.526-5.439c3.548-6.159,7.957-11.828,13.167-16.811
	c3.458-14.211,10.958-27.087,21.868-37.237c14.163-13.177,32.548-20.434,51.767-20.434c7.086,0,14.18,1.031,21.025,3.028
	c6.846-1.996,13.938-3.028,21.024-3.028c2.213,0,4.413,0.107,6.599,0.298c9.623,23.347-2.136,51.898-28.425,59.929l0,0
	C414.519,194.658,374.955,205.26,350.709,182.637z"/>
<path style="fill:#FD6F71;" d="M425.008,138.934c-29.276-15.576-64.747,4.904-65.896,38.045c-28.127,17.566-28.127,58.525,0,76.09
	c1.149,33.142,36.62,53.621,65.896,38.045l0,0c29.276,15.576,64.748-4.904,65.896-38.045c28.127-17.566,28.127-58.525,0-76.09
	C489.756,143.837,454.283,123.357,425.008,138.934L425.008,138.934z"/>
<path style="fill:#E34B4C;" d="M343.541,212.776c11.712-7.107,25.149-10.915,39.027-10.915c28.288,0,53.426,15.257,66.532,39.207
	c14.92,8.177,26.586,21.123,33.213,36.934c-12.505,17.009-36.469,24.198-57.306,13.112l0,0
	c-29.276,15.576-64.747-4.904-65.896-38.046c-14.759-9.217-21.76-24.875-21.03-40.214c1.246-0.062,2.495-0.099,3.751-0.099
	C342.402,212.755,342.971,212.763,343.541,212.776z"/>
<path style="fill:#FADC60;" d="M425.618,264.542c-9.687-31.715-49.251-42.316-73.497-19.694
	c-32.31-7.469-61.272,21.495-53.804,53.804c-22.623,24.246-12.021,63.81,19.694,73.497l0,0
	c9.687,31.715,49.251,42.316,73.497,19.694c32.31,7.469,61.272-21.495,53.804-53.804
	C467.934,313.793,457.334,274.228,425.618,264.542L425.618,264.542z"/>
<path style="fill:#B6A4FF;" d="M195.4,55.336c31.715,9.687,42.316,49.251,19.694,73.497c7.469,32.31-21.495,61.272-53.804,53.804
	c-24.246,22.623-63.81,12.021-73.497-19.694l0,0c-31.715-9.687-42.316-49.251-19.694-73.497
	c-7.469-32.31,21.495-61.272,53.804-53.804C146.149,13.02,185.713,23.62,195.4,55.336L195.4,55.336z"/>
<path style="fill:#937FE6;" d="M161.29,182.637c12.262,2.834,24.036,0.412,33.526-5.439c-3.548-6.159-7.957-11.828-13.167-16.811
	c-3.458-14.211-10.958-27.087-21.868-37.237c-14.163-13.177-32.548-20.434-51.767-20.434c-7.086,0-14.18,1.031-21.025,3.028
	c-6.846-1.996-13.938-3.028-21.024-3.028c-2.213,0-4.413,0.107-6.599,0.298c-9.623,23.347,2.136,51.898,28.425,59.929l0,0
	C97.479,194.658,137.043,205.26,161.29,182.637z"/>
<path style="fill:#FD6F71;" d="M86.991,138.934c29.276-15.576,64.747,4.904,65.896,38.045c28.127,17.566,28.127,58.525,0,76.09
	c-1.149,33.142-36.621,53.621-65.896,38.045l0,0c-29.276,15.576-64.748-4.904-65.896-38.045c-28.127-17.566-28.127-58.525,0-76.09
	C22.243,143.837,57.715,123.357,86.991,138.934L86.991,138.934z"/>
<path style="fill:#E34B4C;" d="M168.456,212.776c-11.712-7.107-25.149-10.915-39.027-10.915c-28.288,0-53.426,15.257-66.532,39.207
	c-14.92,8.177-26.586,21.123-33.213,36.934c12.505,17.009,36.469,24.198,57.306,13.112l0,0
	c29.276,15.576,64.747-4.904,65.896-38.046c14.759-9.217,21.761-24.875,21.03-40.214c-1.245-0.062-2.495-0.099-3.751-0.099
	C169.597,212.755,169.027,212.763,168.456,212.776z"/>
<path style="fill:#FADC60;" d="M86.38,264.542c9.687-31.715,49.251-42.316,73.497-19.694c32.31-7.469,61.272,21.495,53.804,53.804
	c22.623,24.246,12.021,63.81-19.694,73.497l0,0c-9.687,31.715-49.251,42.316-73.497,19.694
	c-32.31,7.469-61.272-21.495-53.804-53.804C44.064,313.793,54.665,274.228,86.38,264.542L86.38,264.542z"/>
<g>
	<path style="fill:#F2C42C;" d="M201.353,306.799c-19.846,4.843-36.96,17.522-47.455,35.701
		c-10.495,18.179-12.918,39.34-7.19,58.948c-0.214,0.735-0.395,1.474-0.586,2.212c20.282,2.193,41.183-9.631,47.865-31.51l0,0
		c31.715-9.687,42.316-49.251,19.694-73.497c0.198-0.857,0.357-1.71,0.505-2.562C209.557,299.158,205.243,302.729,201.353,306.799z"
		/>
	<path style="fill:#F2C42C;" d="M310.645,306.799c19.846,4.843,36.96,17.522,47.455,35.701c10.495,18.179,12.918,39.34,7.19,58.948
		c0.214,0.735,0.395,1.474,0.586,2.212c-20.282,2.193-41.183-9.631-47.865-31.51l0,0c-31.715-9.687-42.316-49.251-19.694-73.497
		c-0.198-0.857-0.357-1.71-0.505-2.562C302.442,299.158,306.755,302.729,310.645,306.799z"/>
</g>
<path style="fill:#FF98C5;" d="M332.089,401.448c15.576-29.276-4.904-64.747-38.045-65.896c-17.566-28.127-58.525-28.127-76.09,0
	c-33.142,1.149-53.621,36.621-38.045,65.896l0,0c-15.576,29.276,4.904,64.748,38.045,65.896c17.566,28.127,58.525,28.127,76.09,0
	C327.186,466.194,347.666,430.723,332.089,401.448L332.089,401.448z"/>
<g>
	<path style="fill:#3A484A;" d="M210.608,411.089c-4.268,0-7.726-3.459-7.726-7.726v-8.215c0-4.267,3.458-7.726,7.726-7.726
		s7.726,3.459,7.726,7.726v8.215C218.335,407.63,214.876,411.089,210.608,411.089z"/>
	<path style="fill:#3A484A;" d="M301.39,411.089c-4.268,0-7.726-3.459-7.726-7.726v-8.215c0-4.267,3.458-7.726,7.726-7.726
		c4.268,0,7.726,3.459,7.726,7.726v8.215C309.116,407.63,305.658,411.089,301.39,411.089z"/>
	<path style="fill:#3A484A;" d="M255.999,415.473c-6.594,0-12.799-2.769-17.02-7.598c-2.809-3.212-2.481-8.093,0.731-10.902
		c3.211-2.809,8.092-2.482,10.902,0.731c1.287,1.471,3.249,2.316,5.387,2.316c2.138,0,4.099-0.844,5.386-2.315
		c2.809-3.213,7.691-3.542,10.902-0.734c3.213,2.808,3.542,7.689,0.733,10.902C268.8,412.704,262.595,415.473,255.999,415.473z"/>
</g>
<g>
</g>
<g>
</g>
<g>
</g>
<g>
</g>
<g>
</g>
<g>
</g>
<g>
</g>
<g>
</g>
<g>
</g>
<g>
</g>
<g>
</g>
<g>
</g>
<g>
</g>
<g>
</g>
<g>
</g>
</svg>
