<?xml version="1.0" encoding="iso-8859-1"?>
<!-- Generator: Adobe Illustrator 19.0.0, SVG Export Plug-In . SVG Version: 6.00 Build 0)  -->
<svg version="1.1" id="Capa_1" xmlns="http://www.w3.org/2000/svg" xmlns:xlink="http://www.w3.org/1999/xlink" x="0px" y="0px"
	 viewBox="0 0 511.998 511.998" style="enable-background:new 0 0 511.998 511.998;" xml:space="preserve">
<g>
	<path style="fill:#35925D;" d="M216.149,152.24c0,0-118.588-50.128-206.822-10.267c-5.198,2.348-10.725-2.534-9.007-7.974
		c63.486-200.938,262.909-94.233,249.336-18.016L216.149,152.24z"/>
	<path style="fill:#35925D;" d="M295.85,152.24c0,0,118.588-50.128,206.822-10.267c5.198,2.348,10.725-2.534,9.007-7.974
		c-63.486-200.938-262.909-94.233-249.336-18.016L295.85,152.24z"/>
</g>
<path style="fill:#7CB777;" d="M255.999,97.902C216.142,26.433-18.465,72.447,63.941,279.391c2.23,5.601,10.021,5.902,12.705,0.504
	c45.572-91.636,176.171-129.906,176.171-129.906l1.1-18.016h4.163l1.1,18.016c0,0,130.599,38.27,176.171,129.906
	c2.685,5.398,10.475,5.097,12.705-0.504C530.463,72.447,295.857,26.433,255.999,97.902z"/>
<path style="fill:#F2C42C;" d="M359.677,307.258l-77.892-19.404l-129.463,19.404c-5.332,31.499-8.849,70.218-6.075,112.516
	l106.57,46.17l112.935-46.17C368.526,377.476,365.009,338.757,359.677,307.258z"/>
<g>
	<path style="fill:#FADC60;" d="M359.677,307.258c-29.694,6.859-65.34,10.851-103.677,10.851s-73.983-3.992-103.677-10.851
		c8.293-49.137,20.979-80.666,20.979-80.666h165.397C338.698,226.591,351.384,258.122,359.677,307.258z"/>
	<path style="fill:#FADC60;" d="M365.752,419.775c-0.402,6.209-0.949,12.49-1.64,18.844c-2.867,26.249-23.135,47.26-49.291,50.911
		c-15.708,2.196-35.47,3.92-58.821,3.92s-43.113-1.722-58.821-3.92c-26.156-3.651-46.424-24.661-49.291-50.911
		c-0.691-6.353-1.237-12.635-1.64-18.844c30.85,7.756,68.765,12.325,109.752,12.325S334.902,427.531,365.752,419.775z"/>
</g>
<g>
	<path style="fill:#3A484A;" d="M190.691,379.023c-4.267,0-7.726-3.459-7.726-7.726v-11.819c0-4.267,3.459-7.726,7.726-7.726
		c4.267,0,7.726,3.459,7.726,7.726v11.819C198.417,375.563,194.958,379.023,190.691,379.023z"/>
	<path style="fill:#3A484A;" d="M321.309,379.023c-4.267,0-7.726-3.459-7.726-7.726v-11.819c0-4.267,3.459-7.726,7.726-7.726
		c4.267,0,7.726,3.459,7.726,7.726v11.819C329.035,375.563,325.576,379.023,321.309,379.023z"/>
	<path style="fill:#3A484A;" d="M255.999,385.332c-8.512,0-16.508-3.562-21.937-9.773c-2.808-3.213-2.481-8.094,0.732-10.902
		c3.212-2.807,8.093-2.481,10.902,0.732c2.494,2.854,6.249,4.491,10.302,4.491c4.053,0,7.808-1.637,10.302-4.49
		c2.808-3.213,7.689-3.541,10.902-0.732c3.213,2.808,3.542,7.689,0.732,10.902C272.507,381.77,264.512,385.332,255.999,385.332z"/>
</g>
<circle style="fill:#AD4F3D;" cx="297.165" cy="211.01" r="44.349"/>
<circle style="fill:#B35948;" cx="214.833" cy="211.01" r="44.349"/>
<path style="fill:#F2C42C;" d="M338.698,226.591H173.3c0,0-5.027,12.5-10.82,34.013c13.161,13.885,31.754,22.571,52.351,22.571
	c15.122,0,29.37-4.627,41.168-12.813c11.798,8.186,26.046,12.813,41.168,12.813c20.595,0,39.189-8.686,52.35-22.571
	C343.724,239.092,338.698,226.591,338.698,226.591z"/>
<path style="fill:#B35948;" d="M297.167,166.66c-18.663,0-34.622,11.533-41.168,27.856c-6.547-16.323-22.505-27.856-41.168-27.856
	c-24.495,0-44.35,19.857-44.35,44.35c0,24.495,19.857,44.35,44.35,44.35c18.663,0,34.622-11.533,41.168-27.856
	c6.547,16.323,22.505,27.856,41.168,27.856c24.495,0,44.35-19.856,44.35-44.35C341.519,186.517,321.662,166.66,297.167,166.66z"/>
<circle style="fill:#C86D5C;" cx="255.999" cy="156.174" r="47.96"/>
<g>
</g>
<g>
</g>
<g>
</g>
<g>
</g>
<g>
</g>
<g>
</g>
<g>
</g>
<g>
</g>
<g>
</g>
<g>
</g>
<g>
</g>
<g>
</g>
<g>
</g>
<g>
</g>
<g>
</g>
</svg>
