<?xml version="1.0" encoding="iso-8859-1"?>
<!-- Generator: Adobe Illustrator 19.0.0, SVG Export Plug-In . SVG Version: 6.00 Build 0)  -->
<svg version="1.1" id="Capa_1" xmlns="http://www.w3.org/2000/svg" xmlns:xlink="http://www.w3.org/1999/xlink" x="0px" y="0px"
	 viewBox="0 0 512 512" style="enable-background:new 0 0 512 512;" xml:space="preserve">
<path style="fill:#FADC60;" d="M97.225,238.838c11.151-77.713,77.98-137.445,158.775-137.445s147.624,59.733,158.775,137.445H97.225
	z"/>
<path style="fill:#F2C42C;" d="M271.443,102.131c-2.501-0.238-5.019-0.42-7.552-0.544c-2.592-0.127-5.187-0.192-7.782-0.194
	c-0.036,0-0.073-0.001-0.109-0.001c-80.796,0-147.624,59.732-158.775,137.445h30.905
	C138.562,166.14,197.719,109.181,271.443,102.131z"/>
<path style="fill:#FD6F71;" d="M415.053,282.671c0.896-6.829,1.355-13.786,1.355-20.86c0-7.799-0.555-15.472-1.633-22.973
	c-44.516-13.061-99.405-20.776-158.775-20.776s-114.257,7.715-158.775,20.776c-1.078,7.501-1.633,15.174-1.633,22.973
	c0,7.074,0.458,14.031,1.355,20.86l86.138,11.503h157.921L415.053,282.671z"/>
<path style="fill:#F2C42C;" d="M512,336.207c-35.299,43.202-136.573,74.401-256,74.401c-73.144,0-139.479-11.703-188.018-30.698
	l58.907-48.034l215.541-37.702l93.899,11.381l44.104,12.804L512,336.207z"/>
<path style="fill:#E34B4C;" d="M389.814,255.042c0,0,73.406-44.971,88.981-9.994c15.575,34.977-3.745,63.068-3.745,63.068
	l-100.265-19.786L389.814,255.042z"/>
<path style="fill:#FD6F71;" d="M382.468,279.049c-2.999,0-5.851-1.756-7.106-4.687c-1.679-3.923,0.139-8.464,4.061-10.144
	c1.618-0.693,40.046-16.821,76.82-4.233c4.037,1.382,6.189,5.775,4.808,9.813s-5.775,6.19-9.811,4.808
	c-31.209-10.683-65.391,3.673-65.733,3.819C384.514,278.848,383.483,279.049,382.468,279.049z"/>
<path style="fill:#E34B4C;" d="M356.315,248.432c0,0-50.82-69.485-78.514-43.046c-27.694,26.439-20.494,59.762-20.494,59.762
	l100.265,19.786L356.315,248.432z"/>
<path style="fill:#FD6F71;" d="M356.93,274.008c-1.996,0-3.992-0.77-5.503-2.303l0,0c-0.263-0.266-26.599-26.548-59.363-28.511
	c-4.26-0.255-7.506-3.916-7.25-8.174c0.254-4.259,3.915-7.512,8.174-7.25c38.798,2.325,68.219,31.843,69.453,33.098
	c2.991,3.044,2.947,7.935-0.097,10.926C360.84,273.27,358.884,274.008,356.93,274.008z"/>
<g>
	<path style="fill:#3A484A;" d="M191.598,173.68c-4.267,0-7.726-3.459-7.726-7.726v-11.655c0-4.267,3.459-7.726,7.726-7.726
		c4.267,0,7.726,3.459,7.726,7.726v11.655C199.325,170.22,195.865,173.68,191.598,173.68z"/>
	<path style="fill:#3A484A;" d="M320.402,173.68c-4.267,0-7.726-3.459-7.726-7.726v-11.655c0-4.267,3.459-7.726,7.726-7.726
		c4.267,0,7.726,3.459,7.726,7.726v11.655C328.128,170.22,324.669,173.68,320.402,173.68z"/>
	<path style="fill:#3A484A;" d="M256,179.901c-8.424,0-16.338-3.526-21.712-9.673c-2.808-3.213-2.481-8.094,0.731-10.902
		c3.212-2.808,8.093-2.481,10.902,0.731c2.439,2.791,6.113,4.392,10.078,4.392c3.965,0,7.639-1.601,10.078-4.391
		c2.809-3.213,7.69-3.541,10.902-0.732c3.213,2.808,3.541,7.689,0.731,10.902C272.339,176.375,264.425,179.901,256,179.901z"/>
</g>
<g>
	<path style="fill:#E34B4C;" d="M384.287,240.175l-17.213-3.396c-9.894-1.952-19.496,4.485-21.448,14.378l-2.432,12.328
		c-1.952,9.894,4.485,19.496,14.378,21.448l17.213,3.397c9.894,1.952,19.496-4.485,21.448-14.378l2.432-12.328
		C400.619,251.73,394.181,242.127,384.287,240.175z"/>
	<path style="fill:#E34B4C;" d="M96.948,282.671l86.139,11.503h30.904l-86.138-11.503c-0.896-6.829-1.355-13.786-1.355-20.861
		c0-7.801,0.555-15.472,1.633-22.973c0.393-2.734,0.862-5.442,1.39-8.13c-11.264,2.41-22.057,5.126-32.295,8.13
		c-0.988,6.876-1.513,13.901-1.598,21.032c-0.007,0.648-0.035,1.292-0.035,1.942C95.594,268.885,96.052,275.842,96.948,282.671z"/>
</g>
<path style="fill:#FADC60;" d="M512,336.207c-35.299-43.202-136.573-74.401-256-74.401c-119.428,0-220.702,31.199-256,74.402
	c90.077,101.481,256,23.588,256,23.588C363.77,319.248,453.225,315.82,512,336.207z"/>
<g>
</g>
<g>
</g>
<g>
</g>
<g>
</g>
<g>
</g>
<g>
</g>
<g>
</g>
<g>
</g>
<g>
</g>
<g>
</g>
<g>
</g>
<g>
</g>
<g>
</g>
<g>
</g>
<g>
</g>
</svg>
