<?xml version="1.0" encoding="iso-8859-1"?>
<!-- Generator: Adobe Illustrator 19.0.0, SVG Export Plug-In . SVG Version: 6.00 Build 0)  -->
<svg version="1.1" id="Capa_1" xmlns="http://www.w3.org/2000/svg" xmlns:xlink="http://www.w3.org/1999/xlink" x="0px" y="0px"
	 viewBox="0 0 512 512" style="enable-background:new 0 0 512 512;" xml:space="preserve">
<g>
	<path style="fill:#FF98C5;" d="M89.557,105.413c-89.104,0-164.709,169.38,83.886,346.332l50.048-15.947L89.557,105.413z"/>
	<path style="fill:#FF98C5;" d="M422.443,105.413c89.104,0,164.709,169.38-83.886,346.332l-50.048-15.947L422.443,105.413z"/>
</g>
<g>
	<path style="fill:#EB5E8A;" d="M182.804,42.262c-86.679,0-175.632,87.71,3.415,388.588l37.272,4.948l27.179-61.523L182.804,42.262z
		"/>
	<path style="fill:#EB5E8A;" d="M329.196,42.262c86.679,0,175.632,87.71-3.415,388.588l-37.272,4.948l-27.179-61.523L329.196,42.262
		z"/>
</g>
<path style="fill:#FF98C5;" d="M288.509,435.799C372.901,82.045,350.767,0,256,0s-116.901,82.045-32.509,435.799H288.509z"/>
<g>
	<path style="fill:#3A484A;" d="M142.909,201.626c-4.268,0-7.726-3.459-7.726-7.726v-20.454c0-4.267,3.458-7.726,7.726-7.726
		c4.268,0,7.726,3.459,7.726,7.726V193.9C150.635,198.167,147.176,201.626,142.909,201.626z"/>
	<path style="fill:#3A484A;" d="M368.946,201.626c-4.268,0-7.726-3.459-7.726-7.726v-20.454c0-4.267,3.458-7.726,7.726-7.726
		s7.726,3.459,7.726,7.726V193.9C376.672,198.167,373.213,201.626,368.946,201.626z"/>
	<path style="fill:#3A484A;" d="M255.927,212.545c-13.101,0-25.389-5.461-33.712-14.983c-2.809-3.213-2.481-8.094,0.732-10.902
		c3.212-2.808,8.093-2.48,10.901,0.732c5.389,6.165,13.436,9.701,22.078,9.701c8.642,0,16.688-3.536,22.078-9.7
		c2.808-3.213,7.689-3.541,10.901-0.732c3.213,2.808,3.542,7.689,0.732,10.902C281.315,207.084,269.028,212.545,255.927,212.545z"/>
</g>
<path style="fill:#EB5E8A;" d="M319.626,426.521c-13.557-8.002-33.721-14.048-63.7-14.048c-29.231,0-49.131,5.747-62.673,13.452
	c-25.586,14.556-27.746,46.728-4.4,63.997C204.04,501.155,226.358,512,255.927,512c29.978,0,52.504-11.148,67.7-22.544
	C346.185,472.538,344.219,441.036,319.626,426.521z"/>
<g>
</g>
<g>
</g>
<g>
</g>
<g>
</g>
<g>
</g>
<g>
</g>
<g>
</g>
<g>
</g>
<g>
</g>
<g>
</g>
<g>
</g>
<g>
</g>
<g>
</g>
<g>
</g>
<g>
</g>
</svg>
