<?xml version="1.0" encoding="iso-8859-1"?>
<!-- Generator: Adobe Illustrator 19.0.0, SVG Export Plug-In . SVG Version: 6.00 Build 0)  -->
<svg version="1.1" id="Capa_1" xmlns="http://www.w3.org/2000/svg" xmlns:xlink="http://www.w3.org/1999/xlink" x="0px" y="0px"
	 viewBox="0 0 512 512" style="enable-background:new 0 0 512 512;" xml:space="preserve">
<path style="fill:#EFEDEE;" d="M511.914,36.902c-0.544-20.065-16.751-36.273-36.816-36.816
	c-93.47-2.532-211.276,50.595-309.229,148.548C90.712,223.792,19.515,333.066,2.031,411.639
	c-13.118,58.953,39.378,111.449,98.331,98.331c78.572-17.484,187.846-88.68,263.003-163.838
	C461.318,248.178,514.446,130.372,511.914,36.902z"/>
<path style="fill:#85E7FF;" d="M472.301,37.053c-86.364-1.6-193.558,51.048-280.266,137.756
	C117.961,248.881,53.24,351.866,38.153,419.675c-3.237,14.586,0.486,29,10.272,39.982l27.417,3.414l169.959-121.114l112.89-112.89
	L461.862,79.046L472.301,37.053z"/>
<path style="fill:#57D0E6;" d="M474.656,37.344c0.254,0.254,0.262,0.456,0.262,0.56c2.355,86.686-50.419,194.754-137.726,282.06
	C263.118,394.039,160.135,458.76,92.325,473.847c-15.498,3.447-30.801-0.987-41.993-12.179c-0.658-0.658-1.294-1.338-1.907-2.011
	c1.779-0.643,3.611-1.173,5.488-1.57c8.045-1.719,15.222-5.727,20.807-11.311c5.502-5.502,9.465-12.544,11.229-20.454l0.149-0.688
	c3.551-15.947,16.067-28.357,32.043-31.774c8.045-1.719,15.214-5.72,20.798-11.304c5.502-5.502,9.473-12.553,11.237-20.462
	l0.149-0.688c3.551-15.946,16.067-28.357,32.036-31.767c8.045-1.719,15.222-5.727,20.807-11.311
	c5.502-5.502,9.473-12.553,11.237-20.462l0.149-0.688c3.544-15.939,16.058-28.35,32.036-31.767
	c8.045-1.719,15.222-5.727,20.807-11.311c5.502-5.502,9.465-12.545,11.229-20.455l0.149-0.688
	c3.551-15.946,16.067-28.357,32.043-31.774c8.045-1.719,15.214-5.72,20.798-11.304c5.502-5.502,9.473-12.553,11.237-20.462
	l0.149-0.688c3.551-15.947,16.067-28.357,32.036-31.767c8.045-1.719,15.221-5.727,20.807-11.311
	c5.502-5.502,9.473-12.553,11.237-20.462l0.149-0.688c3.544-15.939,16.059-28.35,32.036-31.767
	c8.045-1.719,15.222-5.727,20.807-11.311c5.502-5.502,9.465-12.545,11.229-20.455l0.149-0.688c0.239-1.092,0.531-2.16,0.852-3.23
	c0.613,0,1.196,0.015,1.795,0.03C474.2,37.082,474.402,37.09,474.656,37.344z"/>
<g>
</g>
<g>
</g>
<g>
</g>
<g>
</g>
<g>
</g>
<g>
</g>
<g>
</g>
<g>
</g>
<g>
</g>
<g>
</g>
<g>
</g>
<g>
</g>
<g>
</g>
<g>
</g>
<g>
</g>
</svg>
