<?xml version="1.0" encoding="iso-8859-1"?>
<!-- Generator: Adobe Illustrator 19.0.0, SVG Export Plug-In . SVG Version: 6.00 Build 0)  -->
<svg version="1.1" id="Capa_1" xmlns="http://www.w3.org/2000/svg" xmlns:xlink="http://www.w3.org/1999/xlink" x="0px" y="0px"
	 viewBox="0 0 512 512" style="enable-background:new 0 0 512 512;" xml:space="preserve">
<g>
	<path style="fill:#7CB777;" d="M467.147,441.96c-3.917,105.542-59.943,60.326-211.147,60.326S48.771,547.502,44.854,441.96H467.147
		z"/>
	<path style="fill:#7CB777;" d="M394.191,51.366L256.005,20.67L117.81,51.366c-4.041,13.136-8.609,28.205-13.435,44.782
		l151.627,29.424l151.626-29.424C402.801,79.57,398.233,64.501,394.191,51.366z"/>
</g>
<path style="fill:#FA9F6A;" d="M94.856,129.665c-20.681,74.878-42.932,170.426-48.658,257.902l18.045,37.082l191.758,17.311
	l184.306-17.311l25.497-37.082c-5.726-87.477-27.977-183.024-48.658-257.902l-25.497-29.678H158.395L94.856,129.665z"/>
<g>
	<path style="fill:#3A484A;" d="M118.544,263.472c-4.267,0-7.725-3.459-7.725-7.725v-35.212c0-4.266,3.458-7.725,7.725-7.725
		s7.725,3.459,7.725,7.725v35.213C126.269,260.013,122.81,263.472,118.544,263.472z"/>
	<path style="fill:#3A484A;" d="M393.458,263.472c-4.267,0-7.725-3.459-7.725-7.725v-35.212c0-4.266,3.458-7.725,7.725-7.725
		s7.725,3.459,7.725,7.725v35.213C401.183,260.013,397.725,263.472,393.458,263.472z"/>
</g>
<path style="fill:#E0712F;" d="M75.547,425.67c0.094-11.253,0.622-23.896,1.55-38.103c5.726-87.477,27.977-183.024,48.658-257.903
	c1.563-5.658,3.116-11.193,4.653-16.606l-35.553,16.606c-3.878,14.04-7.811,28.806-11.679,44.11
	c-12.896,51.011-25.08,107.992-32.134,163.925c-0.352,2.796-0.692,5.591-1.019,8.381c-0.653,5.581-1.252,11.148-1.794,16.694
	c-0.813,8.319-1.495,16.591-2.031,24.792l18.045,37.082L75.547,425.67z"/>
<g>
	<path style="fill:#C86D5C;" d="M160.703,180.108l-69.651-11.57c-11.949-1.985-23.245,6.092-25.23,18.042l-1.28,7.705
		c-1.985,11.949,6.092,23.245,18.042,25.23l69.651,11.57c11.949,1.985,23.245-6.092,25.23-18.042l1.28-7.705
		C180.731,193.389,172.653,182.094,160.703,180.108z"/>
	<path style="fill:#C86D5C;" d="M351.297,180.108l69.651-11.57c11.949-1.985,23.245,6.092,25.23,18.042l1.28,7.705
		c1.985,11.949-6.093,23.245-18.042,25.23l-69.651,11.57c-11.949,1.985-23.245-6.092-25.23-18.042l-1.28-7.705
		C331.271,193.389,339.348,182.094,351.297,180.108z"/>
	<path style="fill:#C86D5C;" d="M467.147,441.96c-27.987,8.847-87.569,19.761-211.147,19.761S72.842,450.807,44.854,441.96
		c-0.558-14.924-0.062-32.876,1.343-54.394c0,0,24.111,27.564,209.803,27.564s209.803-27.564,209.803-27.564
		C467.208,409.085,467.705,427.037,467.147,441.96z"/>
	<path style="fill:#C86D5C;" d="M256.001,348.868c-27.678,0-54.229-5.81-74.761-16.361c-20.308-10.435-28.311-35.357-17.876-55.665
		c10.435-20.308,35.357-28.311,55.665-17.876c8.798,4.522,22.62,7.22,36.972,7.22c14.353,0,28.174-2.699,36.97-7.219
		c20.305-10.436,45.228-2.434,55.665,17.874c10.436,20.307,2.434,45.229-17.874,55.665
		C310.232,343.058,283.68,348.868,256.001,348.868z"/>
	<path style="fill:#C86D5C;" d="M394.191,51.366c-33.196-3.493-77.926-5.891-138.191-5.891s-104.994,2.398-138.191,5.891
		c2.119-6.884,4.082-13.24,5.87-18.995C129.644,13.115,147.451,0,167.605,0h176.793c20.153,0,37.961,13.115,43.925,32.369
		C390.109,38.126,392.072,44.482,394.191,51.366z"/>
	<path style="fill:#C86D5C;" d="M417.146,129.665c-85.647-14.717-161.145,43.625-161.145,43.625s-75.498-58.342-161.145-43.625
		c3.235-11.709,6.428-22.923,9.518-33.516c34.251-4.299,82.815-7.43,151.627-7.43s117.376,3.131,151.627,7.43
		C410.718,106.741,413.911,117.955,417.146,129.665z"/>
</g>
<path style="fill:#35925D;" d="M45.053,446.29c0.728,13.717,2.143,27.989,7.918,40.708c2.659,5.861,6.498,11.329,11.608,15.304
	c4.518,3.514,9.82,5.793,15.338,7.212c12.657,3.256,25.889,2.655,38.811,1.855c0.626-0.039,1.254-0.078,1.91-0.123
	c-29.576-3.258-43.035-19.486-44.883-69.286h-30.9C44.909,443.436,44.978,444.872,45.053,446.29z"/>
<path style="fill:#AD4F3D;" d="M44.854,441.96c7.766,2.454,17.972,5.069,31.297,7.564c-0.162-2.437-0.299-4.944-0.397-7.564
	c-0.446-11.93-0.217-25.8,0.61-41.873c-24.851-6.446-30.167-12.521-30.167-12.521c-0.927,14.187-1.602,28.405-1.567,42.625
	C44.641,434.308,44.715,438.23,44.854,441.96z"/>
<path style="fill:#35925D;" d="M133.629,101.825c0.55-1.903,1.101-3.812,1.646-5.677c4.827-16.578,9.395-31.646,13.435-44.782
	c0.781-2.538,1.534-4.978,2.271-7.368l-33.171,7.368l0,0c-1.515,4.926-10.448,34.589-11.638,38.637
	c-0.594,2.024-1.194,4.073-1.797,6.145L133.629,101.825z"/>
<path style="fill:#AD4F3D;" d="M149.547,48.646c1.797-5.835,3.485-11.293,5.033-16.276C160.544,13.115,178.352,0,198.505,0h-30.9
	c-8.817,0-17.186,2.51-24.309,6.946c-9.264,5.769-16.361,14.916-19.615,25.423c-1.341,4.318-5.341,17.275-5.87,18.996
	C127.394,50.357,137.945,49.44,149.547,48.646z"/>
<path style="fill:#EFEDEE;" d="M256.001,292.025c-12.788,0-25.212-1.748-35.779-4.934l-0.038,0.008v0.03l-12.343,12.546
	l12.343,19.45c11.175,2.552,23.31,3.906,35.818,3.906l11.58-15.056L256.001,292.025z"/>
<path style="fill:#D2D2D2;" d="M291.818,287.101l-0.038-0.008c-10.568,3.185-22.992,4.934-35.779,4.934v31.005
	c12.507,0,24.643-1.353,35.818-3.906l13.53-24.884L291.818,287.101z"/>
<path style="fill:#EFEDEE;" d="M325.655,288.652c-2.672-5.197-7.968-8.427-13.823-8.427c-2.454,0-4.828,0.58-7.05,1.722
	c-3.868,1.988-8.25,3.712-13.007,5.145c0.002,0,0.004-0.001,0.005-0.001l0.038,0.008v32.024c9.956-2.274,19.151-5.495,27.135-9.599
	c3.683-1.893,6.408-5.107,7.675-9.05C327.893,296.534,327.548,292.334,325.655,288.652z"/>
<path style="fill:#D2D2D2;" d="M186.346,288.652c2.672-5.197,7.968-8.427,13.823-8.427c2.455,0,4.828,0.58,7.05,1.722
	c3.868,1.988,8.25,3.712,13.007,5.145c-0.002,0-0.004-0.001-0.005-0.001l-0.038,0.008v32.024
	c-9.956-2.274-19.151-5.495-27.135-9.599c-3.683-1.893-6.408-5.107-7.675-9.05C184.108,296.534,184.453,292.334,186.346,288.652z"/>
<path style="fill:#AD4F3D;" d="M126.409,127.314c3.011-10.854,5.983-21.289,8.864-31.167c0.32-1.099,0.636-2.173,0.953-3.259
	c-11.796,0.969-22.376,2.068-31.853,3.259l0,0c-0.773,2.648-1.551,5.335-2.336,8.06c-1.569,5.448-3.16,11.043-4.765,16.77
	c-0.802,2.863-1.609,5.76-2.417,8.687C105.575,127.822,116.136,127.126,126.409,127.314z"/>
<g>
</g>
<g>
</g>
<g>
</g>
<g>
</g>
<g>
</g>
<g>
</g>
<g>
</g>
<g>
</g>
<g>
</g>
<g>
</g>
<g>
</g>
<g>
</g>
<g>
</g>
<g>
</g>
<g>
</g>
</svg>
