<?xml version="1.0" encoding="iso-8859-1"?>
<!-- Generator: Adobe Illustrator 19.0.0, SVG Export Plug-In . SVG Version: 6.00 Build 0)  -->
<svg version="1.1" id="Capa_1" xmlns="http://www.w3.org/2000/svg" xmlns:xlink="http://www.w3.org/1999/xlink" x="0px" y="0px"
	 viewBox="0 0 512 512" style="enable-background:new 0 0 512 512;" xml:space="preserve">
<path style="fill:#C86D5C;" d="M512,350.363l-2.599-31.914c-1.833-22.509-6.687-44.701-14.823-65.768
	c-4.131-10.695-9.056-21.113-14.476-28.025l-15.794-20.144c-4.939-6.299-9.286-13.039-12.99-20.135l-21.621-41.437
	c-3.844-7.367-6.975-15.084-9.35-23.047l-15.144-50.767l-57.422-22.196L256,38.22l-91.781,8.709l-57.422,22.196l-15.145,50.767
	c-2.376,7.962-5.506,15.68-9.35,23.047l-21.621,41.437c-3.702,7.096-8.051,13.836-12.99,20.135l-15.794,20.144
	c-5.42,6.913-10.345,17.33-14.476,28.025c-8.136,21.067-12.99,43.258-14.823,65.768L0,350.363l256,96.736L512,350.363z"/>
<path style="fill:#AD4F3D;" d="M30.905,350.363l2.599-31.914c1.833-22.509,6.687-44.702,14.823-65.768
	c4.131-10.695,9.056-21.113,14.476-28.026l15.794-20.144c4.939-6.299,9.286-13.039,12.99-20.135l21.621-41.436
	c3.844-7.367,6.975-15.085,9.35-23.047l15.145-50.767l57.422-22.196l76.328-7.243l-15.453-1.466l-91.781,8.709l-57.423,22.196
	l-15.145,50.767c-2.376,7.962-5.506,15.68-9.35,23.047l-21.621,41.436c-3.702,7.096-8.051,13.836-12.99,20.135l-15.794,20.144
	c-5.42,6.913-10.345,17.33-14.476,28.026c-8.136,21.067-12.99,43.258-14.823,65.768L0,350.363l256,96.736l15.453-5.839
	L30.905,350.363z"/>
<path style="fill:#7CB777;" d="M489.81,392.097c3.191-16.789-6.484-35.09-25.382-39.804c15.022-23.178-2.137-53.696-29.746-52.904
	l0,0l0,0c8.212-26.372-16.545-51.128-42.916-42.916l0,0c0.792-27.61-29.725-44.769-52.904-29.746l0,0l0,0
	c-6.686-26.799-40.701-35.089-58.968-14.37l0,0c-13.668-24.002-48.659-22.806-60.657,2.072l0,0
	c-19.637-19.424-53.007-8.833-57.849,18.361l0,0l0,0c-24.15-13.406-53.425,5.796-50.75,33.287l0,0l0,0
	c-26.871-6.393-49.88,19.995-39.888,45.745l0,0l0,0c-27.6,1.094-42.636,32.711-26.067,54.81l0,0
	c-12.893,4.169-20.877,14.6-23.094,26.125v59.836h468.821L489.81,392.097z"/>
<path style="fill:#FD6F71;" d="M256.003,17.513h118.241c19.567,0,35.429,15.863,35.429,35.429l0,0
	c0,16.42-12.699,30.404-29.103,31.146c-0.541,0.025-1.086,0.037-1.633,0.037l0,0c-13.131,0-24.595-7.131-30.732-17.731v-0.005
	c-6.137,10.604-17.604,17.737-30.735,17.737l0,0c-13.131,0-24.595-7.131-30.732-17.731v-0.005
	c-6.137,10.604-17.604,17.737-30.735,17.737l0,0l0,0c-13.133,0-24.599-7.133-30.735-17.737v0.005
	c-6.138,10.601-17.603,17.731-30.732,17.731l0,0c-13.133,0-24.599-7.133-30.735-17.737v0.005
	c-6.138,10.601-17.603,17.731-30.732,17.731l0,0c-0.547,0-1.091-0.012-1.633-0.037c-16.404-0.743-29.103-14.726-29.103-31.146l0,0
	c-0.002-19.566,15.861-35.429,35.427-35.429H256H256.003z"/>
<path style="fill:#E34B4C;" d="M133.234,52.942L133.234,52.942c0-19.567,15.863-35.429,35.429-35.429h-30.905
	c-19.567,0-35.429,15.862-35.429,35.429l0,0c0,16.42,12.699,30.405,29.103,31.146c0.541,0.025,1.086,0.037,1.633,0.037l0,0
	c5.776,0,11.228-1.383,16.047-3.83C139.591,74.943,133.234,64.555,133.234,52.942z"/>
<g>
	<path style="fill:#3A484A;" d="M180.262,156.31c-4.267,0-7.726-3.459-7.726-7.726v-13.708c0-4.267,3.459-7.726,7.726-7.726
		s7.726,3.459,7.726,7.726v13.708C187.988,152.852,184.529,156.31,180.262,156.31z"/>
	<path style="fill:#3A484A;" d="M331.738,156.31c-4.267,0-7.726-3.459-7.726-7.726v-13.708c0-4.267,3.459-7.726,7.726-7.726
		s7.726,3.459,7.726,7.726v13.708C339.464,152.852,336.005,156.31,331.738,156.31z"/>
	<path style="fill:#3A484A;" d="M256,163.628c-9.515,0-18.448-3.978-24.51-10.913c-2.808-3.213-2.481-8.094,0.732-10.902
		c3.213-2.807,8.094-2.481,10.902,0.732c3.127,3.577,7.82,5.629,12.876,5.629s9.749-2.052,12.876-5.629
		c2.808-3.213,7.689-3.541,10.902-0.732c3.213,2.808,3.541,7.689,0.732,10.902C274.448,159.65,265.515,163.628,256,163.628z"/>
</g>
<polygon style="fill:#57D0E6;" points="490.41,364.543 14.92,364.543 0,391.57 0,494.487 512,494.487 512,391.57 "/>
<path style="fill:#85E7FF;" d="M438.857,350.363L438.857,350.363c-23.34,10.078-49.803,10.078-73.143,0l0,0
	c-23.34-10.078-49.803-10.078-73.143,0l0,0c-23.34,10.078-49.803,10.078-73.143,0l0,0c-23.34-10.078-49.803-10.078-73.143,0l0,0
	c-23.34,10.078-49.803,10.078-73.143,0l0,0c-23.34-10.078-49.803-10.078-73.143,0v41.207c23.34-10.078,49.803-10.078,73.143,0l0,0
	c23.34,10.078,49.803,10.078,73.143,0l0,0c23.34-10.078,49.803-10.078,73.143,0l0,0c23.34,10.078,49.803,10.078,73.143,0l0,0
	c23.34-10.078,49.803-10.078,73.143,0l0,0c23.34,10.078,49.803,10.078,73.143,0l0,0c23.34-10.078,49.803-10.078,73.143,0v-41.207
	C488.66,340.283,462.197,340.283,438.857,350.363z"/>
<g>
</g>
<g>
</g>
<g>
</g>
<g>
</g>
<g>
</g>
<g>
</g>
<g>
</g>
<g>
</g>
<g>
</g>
<g>
</g>
<g>
</g>
<g>
</g>
<g>
</g>
<g>
</g>
<g>
</g>
</svg>
