<?xml version="1.0" encoding="iso-8859-1"?>
<!-- Generator: Adobe Illustrator 19.0.0, SVG Export Plug-In . SVG Version: 6.00 Build 0)  -->
<svg version="1.1" id="Capa_1" xmlns="http://www.w3.org/2000/svg" xmlns:xlink="http://www.w3.org/1999/xlink" x="0px" y="0px"
	 viewBox="0 0 512 512" style="enable-background:new 0 0 512 512;" xml:space="preserve">
<polygon style="fill:#57D0E6;" points="488.724,351.784 16.901,351.784 0,372.388 0,475.305 512,475.305 512,372.388 "/>
<path style="fill:#3A484A;" d="M249.795,48.889c-13.59-12.559-31.702-12.871-50.175-11.807l-39.63,2.282
	c-25.621,1.475-46.174,15.54-48.035,41.135l-1.183,16.27l14.738,12.822l145.837-30.218V68.806L249.795,48.889z"/>
<path style="fill:#EFEDEE;" d="M358.223,71.247c-11.038-9.221-25.577-13.116-39.747-10.648l-207.704,36.17
	c-18.494,3.22-33.512,16.741-38.651,34.796l-16.355,57.461l15.833,31.137l359.67-65.932v-21.969L358.223,71.247z"/>
<g>
	<path style="fill:#57D0E6;" d="M233.406,164.88l159.351-22.819L338.41,94.966c-3.234-2.7-7.332-4.188-11.543-4.188
		c-1.031,0-2.071,0.09-3.09,0.268l-99.133,17.264L233.406,164.88z"/>
	<path style="fill:#57D0E6;" d="M194.191,113.613l-78.118,13.604c-6.763,1.179-12.348,6.206-14.228,12.809l-12.964,45.549
		l113.929-16.314L194.191,113.613z"/>
</g>
<path style="fill:#506366;" d="M258.511,188.582L19.749,251.138L33.8,300.514l228.437-7.345l236.772-62.975
	c4.028-18.966,5.532-36.829,5.717-52.374L258.511,188.582z"/>
<path style="fill:#3A484A;" d="M499.009,230.194c-8.561,40.476-28.588,85.958-71.659,124.58l-377.726,1.37L33.8,300.514
	L499.009,230.194z"/>
<path style="fill:#FD6F71;" d="M504.727,177.82L19.749,251.138l-6.346-22.293c-4.832-16.998,6.346-34.367,23.818-37.014
	l433.088-65.468c16.864-2.555,32.317,9.776,33.625,26.774C504.49,160.399,504.84,168.713,504.727,177.82z"/>
<g>
	<path style="fill:#3A484A;" d="M317.8,191.831c-3.671,0-6.926-2.625-7.597-6.364l-1.852-10.332c-0.753-4.2,2.042-8.216,6.242-8.969
		c4.193-0.753,8.215,2.041,8.969,6.242l1.852,10.332c0.753,4.2-2.042,8.216-6.242,8.969
		C318.711,191.791,318.252,191.831,317.8,191.831z"/>
	<path style="fill:#3A484A;" d="M431.971,171.36c-3.671,0-6.926-2.625-7.597-6.364l-1.852-10.332
		c-0.753-4.2,2.042-8.216,6.242-8.969c4.193-0.755,8.215,2.041,8.969,6.242l1.852,10.332c0.753,4.2-2.042,8.216-6.242,8.969
		C432.883,171.321,432.425,171.36,431.971,171.36z"/>
	<path style="fill:#3A484A;" d="M372.363,187.424c-6.024,0-11.855-1.985-16.516-5.716c-3.332-2.667-3.87-7.53-1.203-10.86
		c2.666-3.331,7.529-3.87,10.86-1.203c2.432,1.947,5.717,2.726,9.015,2.135c3.297-0.591,6.108-2.462,7.712-5.133
		c2.196-3.658,6.941-4.843,10.602-2.645c3.658,2.197,4.842,6.943,2.644,10.602c-3.9,6.494-10.546,11.009-18.231,12.387
		C375.618,187.28,373.984,187.424,372.363,187.424z"/>
</g>
<path style="fill:#85E7FF;" d="M438.857,331.181L438.857,331.181c-23.34,10.078-49.803,10.078-73.143,0l0,0
	c-23.34-10.078-49.803-10.078-73.143,0l0,0c-23.34,10.078-49.803,10.078-73.143,0l0,0c-23.34-10.078-49.803-10.078-73.143,0l0,0
	c-23.34,10.078-49.803,10.078-73.143,0l0,0c-23.34-10.078-49.803-10.078-73.143,0v41.207c23.34-10.078,49.803-10.078,73.143,0l0,0
	c23.34,10.078,49.803,10.078,73.143,0l0,0c23.34-10.078,49.803-10.078,73.143,0l0,0c23.34,10.078,49.803,10.078,73.143,0l0,0
	c23.34-10.078,49.803-10.078,73.143,0l0,0c23.34,10.078,49.803,10.078,73.143,0l0,0c23.34-10.078,49.803-10.078,73.143,0v-41.207
	C488.66,321.102,462.197,321.102,438.857,331.181z"/>
<g>
</g>
<g>
</g>
<g>
</g>
<g>
</g>
<g>
</g>
<g>
</g>
<g>
</g>
<g>
</g>
<g>
</g>
<g>
</g>
<g>
</g>
<g>
</g>
<g>
</g>
<g>
</g>
<g>
</g>
</svg>
