<svg viewBox="-13 1 511 511.999" width="97.16px" height="97.16px" xmlns="http://www.w3.org/2000/svg"><path d="m477.941406 168.117188c4.175782 0 7.558594-3.382813 7.558594-7.554688v-121.492188c0-21.542968-17.535156-39.070312-39.085938-39.070312h-213.503906c-21.539062 0-39.058594 17.527344-39.058594 39.070312v35.316407l-169.242187 70.125c-19.890625 8.242187-29.375 31.152343-21.140625 51.078125l46.203125 111.574218c1.59375 3.855469 6.015625 5.6875 9.871094 4.09375 3.855469-1.597656 5.6875-6.019531 4.089843-9.875l-46.199218-111.566406c-5.050782-12.226562.761718-26.285156 12.960937-31.339844l197.246094-81.734374c12.195313-5.050782 26.242187.773437 31.316406 12.972656l121.011719 292.261718c5.050781 12.222657-.761719 26.28125-12.960938 31.335938l-197.257812 81.738281c-5.871094 2.441407-12.371094 2.4375-18.308594-.019531-5.941406-2.460938-10.554687-7.058594-12.992187-12.957031l-61.105469-147.5625c-1.59375-3.855469-6.015625-5.6875-9.871094-4.09375-3.855468 1.597656-5.6875 6.019531-4.089844 9.875l61.097657 147.558593c3.980469 9.628907 11.503906 17.136719 21.183593 21.144532 4.84375 2 9.917969 3.003906 14.984376 3.003906 5.058593 0 10.105468-.996094 14.898437-2.992188l197.246094-81.730468c13.902343-5.761719 22.710937-18.6875 23.949219-32.753906h49.671874c21.550782 0 39.085938-17.527344 39.085938-39.070313v-158.164063c0-4.171874-3.382812-7.554687-7.558594-7.554687-4.171875 0-7.554687 3.382813-7.554687 7.554687v158.164063c0 13.210937-10.753907 23.957031-23.972657 23.957031h-51.320312c-.339844-1.074218-.71875-2.148437-1.160156-3.210937l-41.402344-99.992188c.195312-.230469.40625-.441406.59375-.679687l50.285156-64.054688c6.25-7.972656 6.148438-20.585937-.230468-28.710937l-49.867188-63.523438c-3.511719-4.449219-8.515625-7-13.734375-7-.007813 0-.015625 0-.023437 0-5.105469.007813-9.96875 2.472657-13.332032 6.761719l-25.390625 32.34375-27.917969-67.421875c-8.269531-19.894531-31.175781-29.378906-51.058593-21.140625l-12.890625 5.339844v-29.050782c0-13.210937 10.738281-23.957031 23.941406-23.957031h213.507812c13.214844 0 23.96875 10.746094 23.96875 23.957031v121.492188c.003907 4.175781 3.386719 7.554688 7.558594 7.554688zm-139.828125-39.789063c.285157-.363281.855469-.976563 1.464844-.976563.554687 0 1.253906.46875 1.859375 1.234376l49.855469 63.511718c2.082031 2.652344 2.191406 7.539063.226562 10.046875l-45.601562 58.085938-38.449219-92.863281zm0 0"/><path d="m199.066406 345.398438c.195313.085937.398438.167968.601563.238281 5.164062 1.816406 9.90625 2.726562 14.246093 2.726562 11.683594 0 20.425782-6.609375 26.519532-19.953125.070312-.148437.132812-.304687.191406-.464844l19.519531-51.582031c9.203125-24.367187-2.605469-52.859375-26.308593-63.515625-9.449219-4.265625-19.570313-4.398437-29.273438-.386718-10.554688 4.367187-19.890625 13.457031-25.929688 24.984374-12.390624-3.878906-25.40625-3.707031-35.957031.664063-9.714843 4.023437-16.789062 11.277344-20.457031 20.976563-9.226562 24.351562 2.5625 52.851562 26.285156 63.523437zm-62.714844-80.960938c2.1875-5.785156 6.261719-9.945312 12.105469-12.367188 8.671875-3.589843 20.5625-2.882812 31.03125 1.84375 1.902344.855469 4.070313.890626 5.996094.097657 1.929687-.800781 3.441406-2.359375 4.179687-4.308594 4.082032-10.769531 12.003907-19.6875 20.671876-23.273437 5.835937-2.414063 11.648437-2.351563 17.292968.199218 16.5625 7.445313 24.808594 27.359375 18.378906 44.390625l-19.425781 51.335938c-5.042969 10.921875-10.152343 13.085937-21.609375 9.125l-50.265625-22.648438c-16.570312-7.460937-24.804687-27.371093-18.355469-44.394531zm0 0"/></svg>